<svg width="367" height="367" viewBox="0 0 367 367" fill="none" xmlns="http://www.w3.org/2000/svg">
<path d="M294.43 285.76C261.934 310.781 222.03 324.265 181.019 324.084C140.007 323.903 100.223 310.067 67.95 284.76L116.61 261.95C118.927 260.861 121.152 259.583 123.26 258.13C123.9 257.69 124.54 257.23 125.15 256.75C130.446 252.698 134.805 247.551 137.93 241.66C140.292 237.134 141.862 232.236 142.57 227.18C143.058 223.899 143.306 220.587 143.31 217.27C143.31 211.55 143 205.83 142.94 200.1C142.9 196.927 142.867 193.757 142.84 190.59L144.84 191.59L150.04 194.28L152.45 194.69L180.33 199.43L211.45 204.73L212.39 236.73L212.7 247.19L212.85 252.27V252.6L224.95 257.52L294.43 285.76Z" fill="#F2D4CF"/>
<path d="M212.81 251.37C209.373 251.961 205.837 251.414 202.74 249.81L143.07 201C143 198.74 142.94 201.11 142.91 198.85C142.87 195.683 142.837 192.513 142.81 189.34L144.81 190.34L150.01 193.03L152.42 193.44L180.3 198.18L211.42 203.48L212.36 235.48L212.67 245.94L212.82 251.02V251.35L212.81 251.37Z" fill="#DAAEA8"/>
<path d="M257.43 89.23C274.586 98.9486 288.098 114.006 295.91 132.11C289.27 132.648 282.723 134.012 276.42 136.17H276.36C274.72 136.73 273.093 137.347 271.48 138.02L270.48 138.45L268.89 139.15C268.36 139.38 267.83 139.63 267.31 139.89C266.79 140.15 266.31 140.4 265.74 140.67C265.17 140.94 264.74 141.2 264.19 141.48C263.64 141.76 263.28 141.97 262.83 142.23C261.75 142.83 260.69 143.46 259.65 144.11C259.237 144.363 258.827 144.623 258.42 144.89C254.41 147.486 250.644 150.441 247.17 153.72C242.78 157.87 238.68 162.64 234.17 166.9C230.302 170.799 225.771 173.978 220.79 176.29C211.15 180.44 200 182.84 189.99 186.29L142.99 202.54C142.99 201.8 137.67 196.54 130.99 190.13C122.286 181.855 115.304 171.94 110.448 160.957C105.591 149.973 102.954 138.137 102.69 126.13C101.07 52.87 187.13 31.33 245.69 47.03C254.992 49.5347 263.838 53.4971 271.9 58.77C277.239 62.2224 282.124 66.3312 286.44 71C291.477 76.4187 295.522 82.6807 298.39 89.5L297.6 89.36C284.326 86.9121 270.72 86.8681 257.43 89.23V89.23Z" fill="url(#paint0_linear)"/>
<path d="M295.91 132.11C289.27 132.648 282.723 134.012 276.42 136.17H276.36C274.701 136.696 273.071 137.314 271.48 138.02L270.48 138.45L268.87 139.17C268.34 139.41 267.82 139.65 267.29 139.91C266.76 140.17 266.29 140.42 265.72 140.69C265.15 140.96 264.72 141.22 264.17 141.5C263.62 141.78 263.26 141.99 262.81 142.25C261.73 142.85 260.67 143.48 259.63 144.13L258.4 144.91C254.39 147.506 250.624 150.461 247.15 153.74C242.76 157.89 238.66 162.66 234.15 166.92C232.69 167.52 231.24 168.15 229.79 168.78C229.97 168.7 228.64 151.78 228.68 150.07C228.847 143.537 229.593 137.031 230.91 130.63C233.45 118.32 231.83 106.87 234.28 94.25C234.798 91.433 235.465 88.6457 236.28 85.9C240.46 82.78 246.28 81.82 251.35 81.09C263.5 79.34 276 81 287.69 84.68C289.623 85.292 291.523 86.0064 293.38 86.82C294.26 87.21 295.12 87.63 295.97 88.08C296.72 88.6445 297.532 89.121 298.39 89.5C284.845 87.0009 270.966 86.9095 257.39 89.23C274.561 98.9418 288.088 114 295.91 132.11Z" fill="url(#paint1_linear)"/>
<path d="M133 179.58C142.389 179.58 150 171.969 150 162.58C150 153.191 142.389 145.58 133 145.58C123.611 145.58 116 153.191 116 162.58C116 171.969 123.611 179.58 133 179.58Z" fill="#F2D4CF"/>
<path d="M138.39 177.8C146.796 177.8 153.61 170.986 153.61 162.58C153.61 154.174 146.796 147.36 138.39 147.36C129.984 147.36 123.17 154.174 123.17 162.58C123.17 170.986 129.984 177.8 138.39 177.8Z" fill="#DAAEA8"/>
<path d="M138.62 146.54L143 203.54L209.44 242.36C214.043 244.077 219.121 244.019 223.684 242.196C228.247 240.373 231.967 236.916 234.12 232.5C243.68 212.92 259.02 182.01 257 170.5C254 153.5 246 147.5 246 147.5C247.113 140.833 248.22 134.187 249.32 127.56C250.58 120.05 252.18 112.21 250.32 104.66C248.19 96.01 241.65 92.31 236.27 85.84C222.11 104.08 198.83 114.39 178.5 124.84C168 130.36 138.62 146.54 138.62 146.54Z" fill="#F2D4CF"/>
<path d="M170.67 134.75C179.93 132.852 189.452 132.598 198.8 134" stroke="#00214E" stroke-miterlimit="10"/>
<path d="M229.72 134.86C235.436 133.539 241.326 133.131 247.17 133.65" stroke="#00214E" stroke-miterlimit="10"/>
<path d="M206.69 173.34C205.968 173.71 205.401 174.326 205.093 175.077C204.785 175.827 204.756 176.664 205.011 177.434C205.266 178.205 205.788 178.859 206.483 179.278C207.178 179.697 208 179.854 208.8 179.72" stroke="#00214E" stroke-miterlimit="10"/>
<path d="M224.74 163C224.74 163 225.03 168.65 226.36 171.3C226.93 172.44 227.82 173.4 228.36 174.54C230.57 178.87 227 179.79 223.55 179.79" stroke="#00214E" stroke-miterlimit="10"/>
<path d="M294.43 285.76C261.934 310.781 222.03 324.265 181.019 324.084C140.007 323.903 100.223 310.067 67.95 284.76L116.61 261.95C118.927 260.861 121.152 259.583 123.26 258.13C123.9 257.69 124.54 257.23 125.15 256.75C130.446 252.698 134.805 247.551 137.93 241.66C140.292 237.134 141.862 232.236 142.57 227.18C143.276 227.864 144.017 228.512 144.79 229.12C150.922 233.654 157.576 237.435 164.61 240.38C168.025 241.805 171.517 243.036 175.07 244.07C185.774 247.191 196.95 248.373 208.07 247.56C209.61 247.44 211.16 247.29 212.7 247.18L212.85 252.26V252.59L224.95 257.51L294.43 285.76Z" fill="#00214E"/>
<path d="M190.17 191.23C190.308 191.013 190.489 190.828 190.701 190.684C190.914 190.54 191.154 190.442 191.406 190.395C191.659 190.348 191.918 190.354 192.168 190.411C192.418 190.469 192.654 190.577 192.86 190.73C194.93 192.19 198.74 195.29 204.14 196.36C211.5 197.83 217.88 194.88 219.41 196.78C220.27 197.85 219.22 199.16 217.21 200.83C215.103 202.403 212.704 203.54 210.152 204.174C207.6 204.807 204.948 204.925 202.35 204.52C195.27 203.19 189.95 194.99 189.95 192.08C189.952 191.783 190.027 191.491 190.17 191.23V191.23Z" fill="white"/>
<path d="M195.034 150.158C195.167 148.357 191.73 146.635 187.357 146.312C182.983 145.988 179.33 147.186 179.197 148.987C179.064 150.788 182.501 152.51 186.874 152.834C191.247 153.157 194.9 151.96 195.034 150.158Z" fill="#00214E"/>
<path d="M239.132 151.182C243.465 150.506 246.752 148.512 246.474 146.728C246.196 144.943 242.458 144.044 238.125 144.72C233.792 145.395 230.505 147.389 230.783 149.174C231.061 150.958 234.799 151.857 239.132 151.182Z" fill="#00214E"/>
<defs>
<linearGradient id="paint0_linear" x1="140.91" y1="159.12" x2="288.5" y2="36.28" gradientUnits="userSpaceOnUse">
<stop stop-color="#16243F"/>
<stop offset="1" stop-color="#6878B1"/>
</linearGradient>
<linearGradient id="paint1_linear" x1="16170.9" y1="11092.8" x2="21029.7" y2="11092.8" gradientUnits="userSpaceOnUse">
<stop stop-color="#16243F"/>
<stop offset="1" stop-color="#6878B1"/>
</linearGradient>
</defs>
</svg>
