<svg width="648" height="595" viewBox="0 0 648 595" fill="none" xmlns="http://www.w3.org/2000/svg">
<g filter="url(#filter0_d)">
<path fill-rule="evenodd" clip-rule="evenodd" d="M354.516 0.407277C450.738 -6.54432 526.344 76.7259 581.42 155.932C631.42 227.837 660.174 317.224 632.625 400.358C607.409 476.45 526.437 509.18 453.407 542.23C383.567 573.836 311.729 599.717 237.93 578.976C142.28 552.095 23.9273 514.159 5.87279 416.457C-11.9862 319.815 102.186 261.321 165.309 185.994C225.007 114.754 261.812 7.10475 354.516 0.407277Z" fill="#1E3A8B"/>
<path fill-rule="evenodd" clip-rule="evenodd" d="M354.516 0.407277C450.738 -6.54432 526.344 76.7259 581.42 155.932C631.42 227.837 660.174 317.224 632.625 400.358C607.409 476.45 526.437 509.18 453.407 542.23C383.567 573.836 311.729 599.717 237.93 578.976C142.28 552.095 23.9273 514.159 5.87279 416.457C-11.9862 319.815 102.186 261.321 165.309 185.994C225.007 114.754 261.812 7.10475 354.516 0.407277Z" fill="url(#paint0_linear)"/>
</g>
<g clip-path="url(#clip0)" filter="url(#filter1_d)">
<path d="M540 442.63L289.93 298.23C286.42 296.23 283.58 290.77 283.58 286.1V92.63C283.58 87.95 286.42 85.8 289.93 87.83L540 232.23C543.51 234.23 546.35 239.69 546.35 244.36V437.83C546.39 442.51 543.55 444.66 540 442.63Z" fill="#B1B4C4"/>
<path d="M541.33 444.63L544.1 443.03L542.9 434.82L541.33 444.63Z" fill="#B1B4C4"/>
<path d="M283.13 89L285.86 87.42L289.78 89.66C289.78 89.66 285.6 90.29 285.5 90.27C285.4 90.25 283.13 89 283.13 89Z" fill="#B1B4C4"/>
<path d="M537.75 444L287.64 299.56C284.13 297.56 281.28 292.1 281.28 287.42V94C281.28 89.32 284.13 87.17 287.64 89.2L537.75 233.6C541.26 235.6 544.1 241.06 544.1 245.74V439.16C544.1 443.83 541.26 446 537.75 444Z" fill="#E4E7F2"/>
<path d="M537.31 444.21L287.2 299.81C283.69 297.81 280.84 292.35 280.84 287.67V94.2C280.84 89.53 283.69 87.38 287.2 89.4L537.31 233.8C540.81 235.8 543.66 241.26 543.66 245.94V439.41C543.66 444.09 540.81 446.24 537.31 444.21Z" fill="#D6D8E5"/>
<path d="M540.22 432.44L284 284.53L284.15 95C284.15 93.06 285.51 92.27 287.15 93.24L537.26 237.64C538.138 238.222 538.867 239.002 539.388 239.917C539.909 240.833 540.208 241.858 540.26 242.91L540.22 432.44Z" fill="white"/>
<path opacity="0.5" d="M540.14 432.45L284 284.54L284.08 95C284.08 93.06 285.44 92.27 287.08 93.24L537.19 237.64C538.068 238.222 538.796 239.003 539.317 239.918C539.838 240.833 540.137 241.858 540.19 242.91L540.14 432.45Z" fill="url(#paint1_linear)"/>
<path opacity="0.4" d="M348.67 556.63L98.56 412.23C95.05 410.23 95.49 406.67 99.56 404.33L267.11 307.59C271.11 305.26 277.29 305 280.79 307.03L530.91 451.43C534.41 453.43 533.97 456.99 529.91 459.33L362.35 556.07C358.3 558.4 352.17 558.66 348.67 556.63Z" fill="#D6D8E5"/>
<path d="M354.13 553.35L104 409C100.49 407 100.93 403.44 105 401.1L272.55 304.37C276.55 302.03 282.73 301.77 286.24 303.8L536.35 448.2C539.86 450.2 539.42 453.76 535.35 456.1L367.82 552.79C363.77 555.12 357.64 555.38 354.13 553.35Z" fill="#B1B4C4"/>
<path d="M101.65 405.69V400.97L106.95 403.19L101.65 405.69Z" fill="#B1B4C4"/>
<path d="M538.72 451.68V447.07L534.8 448.42L537.4 452.24L538.72 451.68Z" fill="#B1B4C4"/>
<path d="M354.13 549.38L104 405C100.49 403 100.93 399.44 105 397.1L272.55 300.36C276.55 298.02 282.73 297.77 286.24 299.8L536.35 444.2C539.86 446.2 539.42 449.76 535.35 452.1L367.82 548.81C363.77 551.15 357.64 551.41 354.13 549.38Z" fill="#E4E7F2"/>
<path d="M354.13 548.77L104 404.37C100.49 402.37 100.93 398.8 105 396.47L272.55 299.73C276.55 297.39 282.73 297.14 286.24 299.16L536.35 443.57C539.86 445.57 539.42 449.13 535.35 451.47L367.82 548.2C363.77 550.54 357.64 550.79 354.13 548.77Z" fill="#D6D8E5"/>
<path d="M267.91 332.36L256.27 325.64C255.27 325.09 255.44 324.13 256.53 323.5L267.65 317.08C268.212 316.767 268.84 316.591 269.482 316.565C270.125 316.539 270.765 316.664 271.35 316.93L283 323.65C283.95 324.2 283.83 325.16 282.73 325.79L271.62 332.21C271.056 332.523 270.427 332.699 269.783 332.725C269.139 332.751 268.497 332.626 267.91 332.36Z" fill="#2B303F"/>
<path d="M284.4 341.88L272.75 335.15C271.8 334.61 271.92 333.65 273.02 333.01L284.13 326.6C284.694 326.287 285.323 326.111 285.967 326.085C286.611 326.059 287.253 326.184 287.84 326.45L299.48 333.17C300.48 333.72 300.31 334.68 299.22 335.31L288.1 341.72C287.54 342.037 286.912 342.216 286.269 342.244C285.626 342.272 284.986 342.147 284.4 341.88Z" fill="#2B303F"/>
<path d="M301.07 351.51L289.43 344.78C288.43 344.23 288.6 343.27 289.69 342.64L300.81 336.23C301.37 335.913 301.998 335.734 302.641 335.706C303.284 335.678 303.924 335.803 304.51 336.07L316.16 342.8C317.16 343.34 316.99 344.3 315.89 344.94L304.78 351.35C304.216 351.661 303.587 351.838 302.944 351.866C302.3 351.894 301.659 351.772 301.07 351.51Z" fill="#2B303F"/>
<path d="M317.37 360.91L305.72 354.19C304.77 353.64 304.89 352.68 305.99 352.05L317.1 345.63C317.664 345.317 318.293 345.141 318.937 345.115C319.581 345.089 320.223 345.214 320.81 345.48L332.46 352.2C333.41 352.75 333.29 353.71 332.19 354.34L321.08 360.76C320.516 361.073 319.887 361.249 319.243 361.275C318.599 361.301 317.957 361.176 317.37 360.91Z" fill="#2B303F"/>
<path d="M333.86 370.43L322.21 363.71C321.21 363.16 321.38 362.2 322.48 361.57L333.59 355.15C334.154 354.837 334.783 354.661 335.427 354.635C336.071 354.609 336.713 354.734 337.3 355L348.94 361.72C349.89 362.27 349.77 363.23 348.67 363.86L337.56 370.28C336.998 370.593 336.37 370.769 335.728 370.795C335.085 370.821 334.445 370.696 333.86 370.43Z" fill="#2B303F"/>
<path d="M350.34 380L338.7 373.28C337.75 372.73 337.86 371.77 338.96 371.14L350.07 364.72C350.634 364.407 351.263 364.231 351.907 364.205C352.551 364.179 353.193 364.304 353.78 364.57L365.43 371.29C366.38 371.84 366.26 372.8 365.16 373.43L354.05 379.85C353.486 380.163 352.857 380.339 352.213 380.365C351.569 380.392 350.927 380.266 350.34 380Z" fill="#2B303F"/>
<path d="M366.83 389.47L355.18 382.75C354.23 382.2 354.35 381.24 355.45 380.61L366.56 374.19C367.124 373.877 367.753 373.701 368.397 373.675C369.041 373.649 369.683 373.774 370.27 374.04L381.91 380.76C382.86 381.31 382.74 382.27 381.65 382.9L370.53 389.31C369.97 389.627 369.342 389.806 368.699 389.834C368.056 389.862 367.416 389.737 366.83 389.47Z" fill="#2B303F"/>
<path d="M383.31 399L371.67 392.27C370.72 391.72 370.84 390.77 371.93 390.13L383.05 383.72C383.61 383.403 384.238 383.224 384.881 383.196C385.524 383.168 386.164 383.293 386.75 383.56L398.4 390.29C399.4 390.84 399.23 391.79 398.13 392.43L387 398.83C386.441 399.145 385.816 399.325 385.175 399.354C384.534 399.384 383.895 399.262 383.31 399Z" fill="#2B303F"/>
<path d="M399.8 408.5L388.15 401.78C387.2 401.23 387.32 400.27 388.42 399.64L399.53 393.23C400.092 392.913 400.721 392.734 401.366 392.706C402.01 392.678 402.653 392.803 403.24 393.07L414.88 399.8C415.83 400.34 415.71 401.3 414.62 401.94L403.51 408.35C402.946 408.663 402.317 408.839 401.673 408.865C401.029 408.891 400.387 408.766 399.8 408.5Z" fill="#2B303F"/>
<path d="M416.28 418L404.64 411.28C403.69 410.73 403.81 409.77 404.9 409.14L416 402.74C416.562 402.427 417.19 402.251 417.832 402.225C418.475 402.199 419.115 402.324 419.7 402.59L431.35 409.31C432.3 409.86 432.18 410.82 431.08 411.45L420 417.87C419.433 418.181 418.802 418.355 418.155 418.378C417.509 418.4 416.867 418.271 416.28 418Z" fill="#2B303F"/>
<path d="M432.77 427.54L421.12 420.82C420.17 420.27 420.29 419.31 421.39 418.68L432.5 412.26C433.064 411.947 433.693 411.771 434.337 411.745C434.981 411.719 435.623 411.844 436.21 412.11L447.86 418.83C448.81 419.38 448.69 420.34 447.59 420.97L436.48 427.39C435.916 427.703 435.287 427.879 434.643 427.905C433.999 427.931 433.357 427.806 432.77 427.54Z" fill="#2B303F"/>
<path d="M449.26 437.06L437.61 430.34C436.66 429.79 436.78 428.83 437.88 428.2L449 421.78C449.564 421.467 450.193 421.291 450.837 421.265C451.481 421.239 452.123 421.364 452.71 421.63L464.35 428.35C465.35 428.9 465.18 429.86 464.08 430.49L453 436.91C452.433 437.229 451.798 437.409 451.148 437.435C450.498 437.462 449.851 437.333 449.26 437.06Z" fill="#2B303F"/>
<path d="M465.74 446.58L454.1 439.85C453.1 439.3 453.26 438.35 454.36 437.71L465.47 431.3C466.033 430.986 466.662 430.807 467.306 430.78C467.95 430.752 468.592 430.875 469.18 431.14L480.83 437.87C481.78 438.42 481.66 439.37 480.56 440.01L469.45 446.42C468.888 446.737 468.259 446.916 467.614 446.944C466.969 446.972 466.327 446.847 465.74 446.58Z" fill="#2B303F"/>
<path d="M490.17 460.68L470.58 449.37C469.63 448.82 469.75 447.86 470.85 447.23L482 440.82C482.562 440.503 483.191 440.324 483.836 440.296C484.48 440.268 485.123 440.393 485.71 440.66L505.25 452C506.2 452.55 506.08 453.51 504.99 454.14L493.87 460.56C493.306 460.868 492.677 461.039 492.034 461.06C491.392 461.081 490.753 460.951 490.17 460.68Z" fill="#2B303F"/>
<path d="M276.39 355.7L264.74 349C263.74 348.45 263.91 347.49 265.01 346.86L276.12 340.44C276.684 340.127 277.313 339.951 277.957 339.925C278.601 339.899 279.243 340.024 279.83 340.29L291.47 347C292.42 347.55 292.3 348.51 291.21 349.14L280.09 355.56C279.527 355.871 278.899 356.046 278.257 356.07C277.614 356.095 276.975 355.968 276.39 355.7Z" fill="#2B303F"/>
<path d="M292.9 365.24L281.26 358.52C280.31 357.97 280.43 357.01 281.52 356.38L292.64 350C293.202 349.687 293.83 349.511 294.472 349.485C295.115 349.459 295.755 349.584 296.34 349.85L308 356.53C308.95 357.08 308.83 358.04 307.73 358.67L296.62 365.09C296.055 365.404 295.424 365.582 294.778 365.608C294.132 365.634 293.488 365.508 292.9 365.24Z" fill="#2B303F"/>
<path d="M309.42 374.77L297.77 368.05C296.77 367.5 296.94 366.54 298.04 365.91L309.15 359.49C309.714 359.177 310.343 359.001 310.987 358.975C311.631 358.949 312.273 359.074 312.86 359.34L324.5 366.06C325.45 366.61 325.33 367.57 324.24 368.2L313.12 374.62C312.558 374.933 311.93 375.109 311.288 375.135C310.645 375.161 310.005 375.036 309.42 374.77Z" fill="#2B303F"/>
<path d="M325.93 384.31L314.28 377.58C313.33 377.04 313.45 376.08 314.55 375.44L325.66 369C326.223 368.686 326.852 368.507 327.496 368.48C328.14 368.452 328.782 368.575 329.37 368.84L341 375.6C341.95 376.15 341.83 377.1 340.73 377.74L329.62 384.15C329.06 384.463 328.435 384.641 327.794 384.669C327.153 384.697 326.515 384.574 325.93 384.31Z" fill="#2B303F"/>
<path d="M342.31 393.77L330.67 387C329.72 386.45 329.84 385.5 330.93 384.86L342.05 378.45C342.61 378.133 343.238 377.954 343.881 377.926C344.524 377.898 345.164 378.023 345.75 378.29L357.4 385.02C358.4 385.56 358.23 386.52 357.13 387.16L346 393.61C345.44 393.921 344.814 394.098 344.174 394.125C343.533 394.153 342.895 394.032 342.31 393.77Z" fill="#2B303F"/>
<path d="M358.83 403.3L347.18 396.58C346.23 396.03 346.35 395.07 347.45 394.44L358.56 388C359.124 387.687 359.753 387.511 360.397 387.485C361.041 387.459 361.683 387.584 362.27 387.85L373.91 394.57C374.86 395.12 374.74 396.08 373.65 396.71L362.53 403.13C361.97 403.446 361.343 403.626 360.7 403.655C360.058 403.685 359.417 403.563 358.83 403.3Z" fill="#2B303F"/>
<path d="M375.34 412.83L363.69 406.11C362.74 405.56 362.86 404.6 363.96 403.97L375.07 397.56C375.632 397.243 376.261 397.064 376.906 397.036C377.551 397.008 378.193 397.133 378.78 397.4L390.43 404.13C391.38 404.67 391.26 405.63 390.16 406.27L379.05 412.68C378.486 412.993 377.857 413.169 377.213 413.195C376.569 413.221 375.927 413.096 375.34 412.83Z" fill="#2B303F"/>
<path d="M391.85 422.37L380.21 415.65C379.26 415.1 379.38 414.14 380.48 413.51L391.59 407.09C392.152 406.777 392.779 406.601 393.422 406.575C394.065 406.549 394.705 406.674 395.29 406.94L406.94 413.66C407.89 414.21 407.77 415.17 406.67 415.8L395.56 422.22C394.996 422.533 394.367 422.709 393.723 422.735C393.079 422.761 392.437 422.636 391.85 422.37Z" fill="#2B303F"/>
<path d="M408.37 431.9L396.72 425.18C395.72 424.63 395.89 423.67 396.99 423.04L408.1 416.62C408.664 416.307 409.293 416.131 409.937 416.105C410.581 416.079 411.223 416.204 411.81 416.47L423.45 423.19C424.4 423.74 424.29 424.7 423.19 425.33L412.08 431.75C411.516 432.063 410.887 432.239 410.243 432.265C409.599 432.292 408.957 432.166 408.37 431.9Z" fill="#2B303F"/>
<path d="M424.88 441.44L413.24 434.71C412.29 434.17 412.41 433.21 413.5 432.57L424.62 426.16C425.182 425.848 425.809 425.671 426.451 425.643C427.093 425.615 427.733 425.738 428.32 426L440 432.73C440.95 433.28 440.83 434.24 439.73 434.87L428.62 441.28C428.054 441.602 427.42 441.784 426.769 441.812C426.119 441.84 425.471 441.712 424.88 441.44Z" fill="#2B303F"/>
<path d="M441.4 451L429.75 444.28C428.8 443.73 428.92 442.77 430.02 442.14L441.13 435.72C441.694 435.407 442.323 435.231 442.967 435.205C443.611 435.179 444.253 435.304 444.84 435.57L456.48 442.29C457.43 442.84 457.31 443.8 456.22 444.43L445.1 450.85C444.538 451.163 443.91 451.339 443.268 451.365C442.625 451.391 441.985 451.266 441.4 451Z" fill="#2B303F"/>
<path d="M457.91 460.51L446.27 453.78C445.32 453.23 445.43 452.28 446.53 451.64L457.64 445.23C458.203 444.916 458.832 444.737 459.476 444.709C460.12 444.682 460.762 444.805 461.35 445.07L473 451.8C473.95 452.35 473.83 453.3 472.73 453.94L461.62 460.35C461.058 460.667 460.429 460.846 459.784 460.874C459.139 460.902 458.497 460.777 457.91 460.51Z" fill="#2B303F"/>
<path d="M259.87 346.17L240.29 334.86C239.34 334.31 239.46 333.36 240.55 332.72L251.67 326.31C252.23 325.993 252.858 325.814 253.501 325.786C254.144 325.758 254.784 325.883 255.37 326.15L275 337.46C275.95 338.01 275.83 338.97 274.73 339.6L263.58 346C263.018 346.316 262.389 346.496 261.745 346.526C261.101 346.555 260.459 346.433 259.87 346.17Z" fill="#2B303F"/>
<path d="M489.37 461.29L477.73 454.57C477.194 454.296 476.601 454.153 476 454.153C475.398 454.153 474.806 454.296 474.27 454.57L462.53 461.35C461.53 461.9 461.53 462.79 462.53 463.35L463.46 463.89C464.34 464.39 464.33 465.22 463.46 465.73L451 472.89C450 473.45 450 474.34 451 474.89L458.41 479.17C458.944 479.441 459.536 479.583 460.135 479.583C460.734 479.583 461.325 479.441 461.86 479.17L473.48 472.47L475.88 471.08L477.61 470.08L479.35 469.08L489.35 463.31C490.32 462.73 490.32 461.84 489.37 461.29Z" fill="#2B303F"/>
<path d="M204.06 369.3L192.42 362.58C191.42 362.03 191.59 361.07 192.68 360.44L203.8 354C204.362 353.687 204.99 353.511 205.632 353.485C206.275 353.459 206.915 353.584 207.5 353.85L219.15 360.57C220.1 361.12 219.98 362.08 218.88 362.71L207.77 369.13C207.208 369.446 206.579 369.626 205.935 369.656C205.291 369.685 204.649 369.563 204.06 369.3Z" fill="#2B303F"/>
<path d="M220.5 378.79L208.86 372.07C207.86 371.52 208.03 370.56 209.12 369.93L220.24 363.51C220.802 363.197 221.429 363.021 222.072 362.995C222.715 362.969 223.355 363.094 223.94 363.36L235.59 370.08C236.54 370.63 236.42 371.59 235.32 372.22L224.21 378.64C223.646 378.953 223.017 379.129 222.373 379.155C221.729 379.181 221.087 379.056 220.5 378.79Z" fill="#2B303F"/>
<path d="M236.94 388.28L225.3 381.56C224.3 381.01 224.46 380.05 225.56 379.42L236.67 373C237.234 372.687 237.863 372.511 238.507 372.485C239.151 372.459 239.793 372.584 240.38 372.85L252 379.57C252.95 380.12 252.83 381.08 251.73 381.71L240.62 388.13C240.06 388.438 239.436 388.612 238.798 388.638C238.159 388.664 237.523 388.541 236.94 388.28Z" fill="#2B303F"/>
<path d="M376.94 469.11L365.29 462.38C364.29 461.84 364.46 460.88 365.56 460.24L376.67 453.83C377.233 453.516 377.862 453.337 378.506 453.309C379.15 453.282 379.792 453.405 380.38 453.67L392 460.4C393 460.95 392.83 461.9 391.73 462.54L380.64 469C380.076 469.309 379.446 469.48 378.803 469.499C378.16 469.518 377.522 469.385 376.94 469.11Z" fill="#2B303F"/>
<path d="M393.37 478.6L381.73 471.88C380.73 471.33 380.9 470.37 381.99 469.74L393.11 463.32C393.672 463.007 394.299 462.831 394.942 462.805C395.585 462.779 396.225 462.904 396.81 463.17L408.46 469.89C409.46 470.44 409.29 471.4 408.19 472.03L397.08 478.45C396.516 478.763 395.887 478.939 395.243 478.965C394.599 478.991 393.957 478.866 393.37 478.6Z" fill="#2B303F"/>
<path d="M409.81 488.09L398.17 481.37C397.22 480.82 397.34 479.86 398.43 479.23L409.55 472.81C410.112 472.497 410.739 472.321 411.382 472.295C412.025 472.269 412.665 472.394 413.25 472.66L424.9 479.38C425.9 479.93 425.73 480.89 424.63 481.52L413.52 487.94C412.956 488.253 412.327 488.429 411.683 488.455C411.039 488.481 410.397 488.356 409.81 488.09Z" fill="#2B303F"/>
<path d="M426.25 497.58L414.61 490.86C413.66 490.31 413.78 489.35 414.87 488.72L426 482.3C426.562 481.987 427.189 481.811 427.832 481.785C428.475 481.759 429.115 481.884 429.7 482.15L441.35 488.87C442.35 489.42 442.18 490.38 441.08 491.01L430 497.43C429.431 497.749 428.795 497.929 428.143 497.956C427.491 497.982 426.842 497.853 426.25 497.58Z" fill="#2B303F"/>
<path d="M257.61 400.22L241.73 391.05C240.78 390.5 240.9 389.54 242 388.91L253.11 382.49C253.674 382.177 254.303 382.001 254.947 381.975C255.591 381.949 256.233 382.074 256.82 382.34L272.7 391.51C273.7 392.06 273.53 393.01 272.43 393.65L261.32 400.06C260.758 400.377 260.129 400.556 259.484 400.584C258.839 400.612 258.197 400.487 257.61 400.22Z" fill="#2B303F"/>
<path d="M360.5 459.62L344.62 450.45C343.62 449.9 343.79 448.94 344.88 448.31L356 441.89C356.562 441.577 357.19 441.401 357.832 441.375C358.475 441.349 359.115 441.474 359.7 441.74L375.58 450.91C376.53 451.46 376.41 452.41 375.32 453.05L364.2 459.46C363.64 459.777 363.012 459.956 362.369 459.984C361.726 460.012 361.086 459.887 360.5 459.62Z" fill="#2B303F"/>
<path d="M339.82 447.68L262.41 403C261.46 402.45 261.58 401.49 262.67 400.86L273.79 394.44C274.352 394.127 274.979 393.951 275.622 393.925C276.265 393.899 276.905 394.024 277.49 394.29L354.91 439C355.86 439.55 355.74 440.51 354.64 441.14L343.53 447.56C342.964 447.868 342.333 448.039 341.689 448.06C341.045 448.081 340.405 447.951 339.82 447.68Z" fill="#2B303F"/>
<path d="M264.89 367.52L253.25 360.8C252.3 360.25 252.42 359.29 253.52 358.66L264.63 352.24C265.192 351.927 265.819 351.751 266.462 351.725C267.105 351.699 267.744 351.824 268.33 352.09L280 358.81C281 359.36 280.83 360.32 279.73 360.95L268.62 367.37C268.054 367.686 267.421 367.864 266.773 367.89C266.125 367.917 265.48 367.79 264.89 367.52Z" fill="#2B303F"/>
<path d="M281.36 377L269.72 370.27C268.77 369.72 268.89 368.77 269.98 368.13L281.1 361.72C281.661 361.406 282.288 361.227 282.931 361.2C283.574 361.172 284.214 361.295 284.8 361.56L296.45 368.29C297.45 368.84 297.28 369.79 296.18 370.43L285.07 376.84C284.508 377.157 283.879 377.336 283.234 377.364C282.589 377.392 281.947 377.267 281.36 377Z" fill="#2B303F"/>
<path d="M297.83 386.53L286.18 379.81C285.18 379.26 285.35 378.3 286.45 377.67L297.56 371.25C298.124 370.937 298.753 370.761 299.397 370.735C300.041 370.709 300.683 370.834 301.27 371.1L312.91 377.82C313.91 378.37 313.75 379.33 312.65 379.96L301.54 386.38C300.976 386.693 300.347 386.869 299.703 386.895C299.059 386.922 298.417 386.796 297.83 386.53Z" fill="#2B303F"/>
<path d="M314.3 396L302.65 389.28C301.65 388.73 301.82 387.77 302.92 387.14L314 380.76C314.564 380.447 315.193 380.271 315.837 380.245C316.481 380.219 317.123 380.344 317.71 380.61L329.35 387.33C330.35 387.88 330.18 388.84 329.09 389.47L318 395.89C317.435 396.196 316.806 396.366 316.163 396.385C315.52 396.404 314.882 396.272 314.3 396Z" fill="#2B303F"/>
<path d="M330.76 405.55L319.12 398.83C318.12 398.28 318.29 397.32 319.38 396.69L330.5 390.27C331.062 389.957 331.69 389.781 332.332 389.755C332.975 389.729 333.615 389.854 334.2 390.12L345.85 396.84C346.85 397.39 346.68 398.35 345.58 398.98L334.47 405.4C333.906 405.713 333.277 405.889 332.633 405.915C331.989 405.941 331.347 405.816 330.76 405.55Z" fill="#2B303F"/>
<path d="M347.23 415.06L335.59 408.33C334.59 407.78 334.75 406.83 335.85 406.19L347 399.78C347.562 399.463 348.191 399.284 348.836 399.256C349.48 399.228 350.123 399.353 350.71 399.62L362.36 406.35C363.31 406.9 363.19 407.85 362.09 408.49L350.98 414.9C350.413 415.223 349.777 415.406 349.124 415.434C348.472 415.462 347.823 415.334 347.23 415.06Z" fill="#2B303F"/>
<path d="M363.7 424.56L352.05 417.84C351.1 417.29 351.22 416.33 352.32 415.7L363.43 409.28C363.994 408.967 364.623 408.791 365.267 408.765C365.911 408.739 366.553 408.864 367.14 409.13L378.78 415.85C379.78 416.4 379.61 417.36 378.52 417.99L367.4 424.41C366.838 424.723 366.21 424.899 365.568 424.925C364.925 424.951 364.285 424.826 363.7 424.56Z" fill="#2B303F"/>
<path d="M380.17 434.07L368.52 427.35C367.57 426.8 367.69 425.84 368.79 425.21L379.9 418.79C380.464 418.477 381.093 418.301 381.737 418.275C382.381 418.249 383.023 418.374 383.61 418.64L395.25 425.36C396.2 425.91 396.08 426.87 394.98 427.5L383.87 433.92C383.308 434.233 382.68 434.409 382.038 434.435C381.395 434.461 380.755 434.336 380.17 434.07Z" fill="#2B303F"/>
<path d="M396.63 443.58L385 436.86C384.05 436.31 384.17 435.35 385.26 434.72L396.38 428.3C396.942 427.987 397.569 427.811 398.212 427.785C398.855 427.759 399.494 427.884 400.08 428.15L411.73 434.87C412.68 435.42 412.56 436.38 411.46 437.01L400.35 443.43C399.785 443.744 399.154 443.922 398.508 443.948C397.862 443.974 397.218 443.848 396.63 443.58Z" fill="#2B303F"/>
<path d="M413.1 453.09L401.45 446.36C400.5 445.81 400.62 444.86 401.72 444.22L412.83 437.81C413.392 437.493 414.021 437.314 414.666 437.286C415.31 437.258 415.953 437.383 416.54 437.65L428.19 444.38C429.14 444.92 429.02 445.88 427.92 446.52L416.81 452.93C416.247 453.244 415.618 453.423 414.974 453.45C414.33 453.478 413.688 453.355 413.1 453.09Z" fill="#2B303F"/>
<path d="M429.57 462.59L417.92 455.87C416.97 455.32 417.09 454.36 418.19 453.73L429.3 447.31C429.864 446.997 430.493 446.821 431.137 446.795C431.781 446.769 432.423 446.894 433.01 447.16L444.65 453.88C445.65 454.43 445.48 455.39 444.39 456.02L433.27 462.44C432.708 462.753 432.08 462.929 431.438 462.955C430.795 462.981 430.155 462.856 429.57 462.59Z" fill="#2B303F"/>
<path d="M446 472.1L434.36 465.38C433.41 464.83 433.53 463.87 434.63 463.24L445.74 456.82C446.302 456.507 446.929 456.331 447.572 456.305C448.215 456.279 448.855 456.404 449.44 456.67L461.09 463.39C462.04 463.94 461.92 464.9 460.82 465.53L449.74 472C449.168 472.31 448.532 472.48 447.882 472.498C447.232 472.515 446.587 472.379 446 472.1Z" fill="#2B303F"/>
<path d="M248.43 358L224.34 344.1C223.34 343.55 223.51 342.59 224.61 341.96L235.72 335.54C236.284 335.227 236.913 335.051 237.557 335.025C238.201 334.999 238.843 335.124 239.43 335.39L263.51 349.29C264.51 349.84 264.34 350.8 263.25 351.43L252.13 357.85C251.568 358.163 250.94 358.339 250.298 358.365C249.655 358.391 249.015 358.266 248.43 358Z" fill="#2B303F"/>
<path d="M240.74 372L229.1 365.3C228.15 364.75 228.26 363.8 229.36 363.16L240.47 356.75C241.032 356.433 241.661 356.254 242.306 356.226C242.95 356.198 243.593 356.323 244.18 356.59L255.83 363.32C256.78 363.86 256.66 364.82 255.56 365.46L244.45 371.87C243.885 372.18 243.255 372.353 242.61 372.375C241.966 372.398 241.326 372.269 240.74 372Z" fill="#2B303F"/>
<path d="M257.21 381.53L245.56 374.81C244.61 374.26 244.73 373.3 245.83 372.67L256.94 366.25C257.504 365.937 258.133 365.761 258.777 365.735C259.421 365.709 260.063 365.834 260.65 366.1L272.29 372.82C273.29 373.37 273.12 374.33 272.03 374.96L260.91 381.38C260.348 381.693 259.72 381.869 259.078 381.895C258.435 381.921 257.795 381.796 257.21 381.53Z" fill="#2B303F"/>
<path d="M273.67 391L262 384.31C261 383.76 261.17 382.81 262.27 382.17L273.38 375.76C273.943 375.446 274.572 375.267 275.216 375.239C275.86 375.212 276.502 375.335 277.09 375.6L288.74 382.33C289.74 382.88 289.57 383.83 288.47 384.47L277.36 390.88C276.797 391.187 276.17 391.358 275.529 391.379C274.888 391.4 274.252 391.27 273.67 391Z" fill="#2B303F"/>
<path d="M290.13 400.54L278.49 393.82C277.49 393.27 277.66 392.31 278.76 391.68L289.87 385.26C290.432 384.947 291.059 384.771 291.702 384.745C292.345 384.719 292.985 384.844 293.57 385.11L305.22 391.83C306.17 392.38 306.05 393.34 304.95 393.97L293.84 400.39C293.276 400.703 292.647 400.879 292.003 400.905C291.359 400.931 290.717 400.806 290.13 400.54Z" fill="#2B303F"/>
<path d="M306.6 410.05L295 403.33C294.05 402.78 294.17 401.82 295.27 401.19L306.38 394.77C306.944 394.457 307.573 394.281 308.217 394.255C308.861 394.229 309.503 394.354 310.09 394.62L321.73 401.34C322.68 401.89 322.57 402.85 321.47 403.48L310.36 409.89C309.792 410.215 309.154 410.399 308.499 410.427C307.845 410.455 307.194 410.325 306.6 410.05Z" fill="#2B303F"/>
<path d="M323.06 419.55L311.42 412.83C310.47 412.28 310.59 411.32 311.68 410.69L322.8 404.27C323.362 403.957 323.989 403.781 324.632 403.755C325.275 403.729 325.915 403.854 326.5 404.12L338.15 410.84C339.1 411.39 338.98 412.35 337.88 412.98L326.77 419.4C326.206 419.713 325.577 419.889 324.933 419.915C324.289 419.941 323.647 419.816 323.06 419.55Z" fill="#2B303F"/>
<path d="M339.53 429.06L327.88 422.34C326.93 421.79 327.05 420.83 328.15 420.2L339.26 413.78C339.824 413.467 340.453 413.291 341.097 413.265C341.741 413.239 342.383 413.364 342.97 413.63L354.61 420.35C355.56 420.9 355.44 421.86 354.35 422.49L343.24 428.91C342.676 429.223 342.047 429.399 341.403 429.425C340.759 429.452 340.117 429.326 339.53 429.06Z" fill="#2B303F"/>
<path d="M356 438.57L344.36 431.84C343.41 431.29 343.53 430.34 344.62 429.7L355.74 423.29C356.3 422.973 356.928 422.794 357.571 422.766C358.214 422.738 358.854 422.863 359.44 423.13L371.09 429.86C372.04 430.4 371.92 431.36 370.82 432L359.71 438.41C359.147 438.724 358.518 438.903 357.874 438.93C357.23 438.958 356.588 438.835 356 438.57Z" fill="#2B303F"/>
<path d="M372.46 448.07L360.81 441.35C359.86 440.8 359.98 439.84 361.08 439.21L372.19 432.79C372.754 432.477 373.383 432.301 374.027 432.275C374.671 432.249 375.313 432.374 375.9 432.64L387.54 439.36C388.49 439.91 388.37 440.87 387.28 441.5L376.16 447.92C375.598 448.233 374.97 448.409 374.328 448.435C373.685 448.461 373.045 448.336 372.46 448.07Z" fill="#2B303F"/>
<path d="M388.92 457.58L377.28 450.85C376.33 450.31 376.45 449.35 377.54 448.71L388.66 442.3C389.221 441.986 389.848 441.807 390.491 441.78C391.134 441.752 391.774 441.875 392.36 442.14L404 448.87C404.95 449.42 404.83 450.37 403.73 451.01L392.62 457.42C392.059 457.735 391.432 457.914 390.789 457.942C390.146 457.969 389.506 457.845 388.92 457.58Z" fill="#2B303F"/>
<path d="M405.39 467.08L393.74 460.36C392.79 459.81 392.91 458.85 394.01 458.22L405.12 451.8C405.684 451.487 406.313 451.311 406.957 451.285C407.601 451.259 408.243 451.384 408.83 451.65L420.47 458.37C421.42 458.92 421.3 459.88 420.21 460.51L409.09 466.93C408.528 467.243 407.9 467.419 407.258 467.445C406.615 467.471 405.975 467.346 405.39 467.08Z" fill="#2B303F"/>
<path d="M442.23 488.36L410.23 469.87C409.28 469.32 409.39 468.36 410.49 467.73L421.6 461.31C422.164 460.997 422.793 460.821 423.437 460.795C424.081 460.769 424.723 460.894 425.31 461.16L457.31 479.65C458.26 480.19 458.14 481.15 457.04 481.79L445.93 488.2C445.368 488.513 444.741 488.69 444.099 488.718C443.457 488.746 442.817 488.623 442.23 488.36Z" fill="#2B303F"/>
<path d="M224.28 362.52L208.4 353.35C207.4 352.8 207.57 351.84 208.66 351.21L219.78 344.8C220.34 344.483 220.968 344.304 221.611 344.276C222.254 344.248 222.894 344.373 223.48 344.64L239.36 353.81C240.31 354.36 240.19 355.32 239.1 355.95L228 362.37C227.435 362.686 226.804 362.864 226.158 362.89C225.512 362.916 224.868 362.79 224.28 362.52Z" fill="#2B303F"/>
<path d="M506.71 451.13L272.87 316.13C271.87 315.59 272.04 314.63 273.14 313.99L278.7 310.79C279.261 310.476 279.888 310.297 280.531 310.27C281.174 310.242 281.814 310.365 282.4 310.63L516.24 445.63C517.19 446.18 517.07 447.13 515.97 447.77L510.42 451C509.855 451.31 509.225 451.483 508.58 451.505C507.936 451.528 507.296 451.399 506.71 451.13Z" fill="#2B303F"/>
<path d="M361.85 466.48C361.516 467.207 360.945 467.8 360.23 468.16L295.89 505.31C294.807 505.912 293.598 506.252 292.359 506.302C291.121 506.353 289.888 506.112 288.76 505.6L178.76 442.11C178.29 441.866 177.911 441.477 177.68 441C177.28 440 177.84 438.89 179.3 438.05L243.65 400.89C244.733 400.288 245.942 399.948 247.181 399.898C248.419 399.847 249.652 400.088 250.78 400.6L360.78 464.09C361.225 464.283 361.581 464.635 361.779 465.077C361.977 465.52 362.002 466.02 361.85 466.48Z" fill="#B1B4C4"/>
<path d="M361.85 466.48C361.516 467.207 360.945 467.8 360.23 468.16L295.89 505.31C294.807 505.912 293.598 506.252 292.359 506.302C291.121 506.353 289.888 506.112 288.76 505.6L178.76 442.11C178.29 441.866 177.911 441.477 177.68 441C178.021 440.28 178.59 439.693 179.3 439.33L243.65 402.18C244.733 401.577 245.941 401.236 247.179 401.184C248.417 401.132 249.651 401.37 250.78 401.88L360.78 465.38C361.247 465.62 361.623 466.007 361.85 466.48Z" fill="#C3C6D1"/>
<path d="M524.51 440.89L290.67 305.89C290.155 305.509 289.736 305.013 289.446 304.442C289.156 303.871 289.003 303.24 289 302.6V299.85C289 298.58 289.77 298 290.72 298.55L524.56 433.55C525.084 433.923 525.513 434.415 525.811 434.985C526.11 435.555 526.271 436.187 526.28 436.83V439.58C526.23 440.86 525.46 441.44 524.51 440.89Z" fill="#2B303F"/>
<path d="M326 292.56L302.9 279.25C300.01 277.58 297.66 273.09 297.66 269.25V244.48C297.66 240.62 300.01 238.85 302.9 240.48L326 253.83C328.9 255.5 331.24 259.99 331.24 263.83V288.6C331.2 292.46 328.86 294.23 326 292.56Z" fill="#E9EAF2"/>
<path d="M325.91 235.83L302.85 222.52C299.96 220.85 297.61 214.02 297.61 210.68V181.76C297.61 177.9 299.96 176.13 302.85 177.76L325.91 191.07C328.81 192.74 331.15 197.23 331.15 201.07V229.99C331.15 233.39 328.81 237.5 325.91 235.83Z" fill="#E9EAF2"/>
<path d="M314.51 216.51C309.82 213.8 306 207.18 306 201.76C306 196.34 309.82 194.13 314.51 196.84C319.2 199.55 323.03 206.17 323.03 211.59C323.03 217.01 319.21 219.22 314.51 216.51ZM314.51 199.36C311.02 197.36 308.18 198.99 308.18 203.02C308.294 205.222 308.927 207.367 310.027 209.278C311.127 211.19 312.663 212.815 314.51 214.02C318.01 216.02 320.85 214.4 320.85 210.37C320.736 208.165 320.103 206.018 319.001 204.104C317.899 202.191 316.36 200.565 314.51 199.36Z" fill="#61A4F9"/>
<path d="M316.85 212.5L312.99 206.36V201.25L315.17 202.51V206.48L318.29 211.43L316.85 212.5Z" fill="#61A4F9"/>
<path d="M325.88 174.66L302.82 161.35C299.93 159.67 297.58 152.15 297.58 148.8V122.18C297.58 118.84 299.93 117.48 302.82 119.18L325.88 132.5C327.406 133.493 328.676 134.831 329.586 136.407C330.497 137.984 331.022 139.752 331.12 141.57V168.2C331.12 171.51 328.78 176.33 325.88 174.66Z" fill="#E9EAF2"/>
<path d="M314.35 142.75C312.96 141.95 311.84 142.6 311.84 144.21C311.886 145.082 312.138 145.93 312.574 146.686C313.01 147.442 313.619 148.084 314.35 148.56C315.74 149.36 316.87 148.71 316.87 147.11C316.82 146.237 316.566 145.387 316.129 144.63C315.691 143.873 315.082 143.229 314.35 142.75ZM321.06 143.75L319.06 142.59C318.736 142.369 318.502 142.039 318.4 141.66L317.88 139.55C317.771 139.172 317.534 138.843 317.21 138.62L311.51 135.33C311.23 135.17 310.94 135.24 310.85 135.5L310.33 137C310.304 137.061 310.265 137.114 310.215 137.157C310.165 137.2 310.106 137.231 310.042 137.247C309.978 137.264 309.911 137.265 309.847 137.252C309.782 137.239 309.722 137.211 309.67 137.17L307.67 136.01C306.75 135.47 306 135.91 306 137.01V145.73C306.032 146.31 306.199 146.875 306.489 147.379C306.78 147.883 307.184 148.311 307.67 148.63L321.09 156.38C322.01 156.91 322.77 156.48 322.77 155.38V146.63C322.734 146.045 322.56 145.476 322.263 144.971C321.966 144.465 321.554 144.036 321.06 143.72V143.75ZM314.35 150.53C313.131 149.733 312.117 148.661 311.39 147.399C310.662 146.138 310.241 144.724 310.16 143.27C310.16 140.59 312.04 139.51 314.35 140.85C315.571 141.644 316.587 142.716 317.316 143.978C318.044 145.239 318.463 146.655 318.54 148.11C318.54 150.75 316.67 151.84 314.35 150.5V150.53ZM320.47 146.7C320.302 146.59 320.161 146.443 320.061 146.269C319.96 146.095 319.901 145.9 319.89 145.7C319.89 145.32 320.15 145.17 320.47 145.36C320.64 145.468 320.782 145.615 320.885 145.789C320.987 145.963 321.047 146.159 321.06 146.36C321.06 146.71 320.8 146.86 320.47 146.67V146.7Z" fill="#61A4F9"/>
<path d="M321.63 268.35C321.63 272.86 314.56 278.72 314.56 278.72C314.56 278.72 307.48 264.72 307.48 260.18C307.48 255.64 310.65 253.84 314.56 256.09C316.619 257.434 318.332 259.245 319.56 261.375C320.788 263.505 321.497 265.895 321.63 268.35Z" fill="#61A4F9"/>
<path d="M317.83 269.622C319.638 268.578 319.639 265.196 317.833 262.068C316.027 258.94 313.098 257.25 311.29 258.294C309.482 259.338 309.48 262.72 311.286 265.848C313.092 268.976 316.022 270.666 317.83 269.622Z" fill="#E9EAF2"/>
<path d="M489.13 329L349.52 248.39C347.16 247.04 345.26 243.39 345.26 240.26V146.43C345.26 143.3 347.16 141.86 349.52 143.22L489.13 223.82C491.48 225.18 493.38 228.82 493.38 231.96V325.78C493.38 328.92 491.48 330.36 489.13 329Z" fill="#E9EAF2"/>
<path d="M473 260.79L364.79 198.32C362.17 196.8 360.04 192.74 360.04 189.25V182.18C360.04 178.68 362.17 177.08 364.79 178.59L473 241.06C475.62 242.57 477.74 246.63 477.74 250.13V257.2C477.74 260.7 475.62 262.3 473 260.79Z" fill="white"/>
<path d="M414.15 258.6L364.79 230.1C362.17 228.59 360.04 224.53 360.04 221.03V214C360.04 210.5 362.17 208.9 364.79 210.41L414.15 238.91C416.77 240.42 418.89 244.48 418.89 247.98V255C418.89 258.5 416.77 260.11 414.15 258.6Z" fill="#61A4F9"/>
<path d="M517.86 349.64C517.86 349.64 465.23 361.24 422.68 313.98C380.13 266.72 345.42 272.78 345.42 272.78V302.28L517.86 401.83V349.64Z" fill="url(#paint2_linear)"/>
<path d="M517.86 349.64C517.86 349.64 465.23 361.24 422.68 313.98C380.13 266.72 345.42 272.78 345.42 272.78" stroke="#CCCEDD" stroke-width="1.06" stroke-miterlimit="10"/>
<path d="M345.19 102.4C343.651 105.152 341.781 107.704 339.62 110C339.02 110.7 334.39 108.93 335.36 108.43C336.33 107.93 339.36 103.71 340.88 100.89C342.152 97.5233 343.233 94.0879 344.12 90.6C345.07 87.15 345.89 82.09 346.59 79.71C346.769 78.8309 347.198 78.0224 347.826 77.3818C348.455 76.7413 349.255 76.2961 350.13 76.1C351.8 75.71 352.88 76.17 352.57 78.19C352 81.71 349.27 95.45 345.19 102.4Z" fill="#FFCEA9"/>
<path d="M347.84 156.25C346.41 157.42 344.29 156.35 344.18 156.46C342.495 158.021 340.729 159.493 338.89 160.87C337.99 161.57 336.6 162.51 336.89 163.87C337.34 166.28 341.21 165.54 342.67 164.8C344.13 164.06 345.33 162.8 346.67 161.98C347.67 161.36 348.67 161.05 348.78 159.8C348.87 159.05 348.1 156.22 347.84 156.25Z" fill="#1E3A8B"/>
<path d="M348.76 159.3C348.57 160.49 347.61 160.82 346.63 161.43C345.23 162.3 343.99 163.56 342.53 164.3C341.07 165.04 337.82 165.66 336.87 163.93C337.38 166.26 341.19 165.53 342.63 164.8C344.07 164.07 345.29 162.8 346.63 161.98C347.63 161.36 348.63 161.05 348.74 159.8C348.76 159.634 348.767 159.467 348.76 159.3Z" fill="#3B82F6"/>
<path d="M333.28 147.86C331.85 149.03 329.34 147.76 329.23 147.86C327.74 149.377 326.161 150.803 324.5 152.13C323.6 152.84 322.21 153.78 322.5 155.13C322.95 157.55 326.82 156.81 328.29 156.07C329.76 155.33 330.94 154.07 332.29 153.24C333.29 152.63 334.29 152.31 334.4 151.07C334.48 150.32 333.54 147.83 333.28 147.86Z" fill="#1E3A8B"/>
<path d="M334.35 150.74C334.16 151.93 333.2 152.26 332.22 152.87C330.82 153.74 329.58 155 328.12 155.74C326.66 156.48 323.4 157.1 322.46 155.37C322.97 157.7 326.77 156.97 328.22 156.24C329.67 155.51 330.87 154.24 332.22 153.41C333.22 152.8 334.22 152.49 334.33 151.24C334.35 151.074 334.357 150.907 334.35 150.74Z" fill="#3B82F6"/>
<path d="M367 110.24C368.59 120.18 364.18 123.89 358.44 126C354.32 127.52 348.44 129.86 348.44 129.86C348.44 129.86 348.52 132.04 348.56 136.93C348.56 141.24 348.04 156.93 348.04 156.93C347.359 157.28 346.605 157.463 345.84 157.463C345.075 157.463 344.321 157.28 343.64 156.93C343.64 156.93 341.33 144.88 340.84 139.44C340.17 132.07 339.04 127.24 339.42 125.65C339.75 124.25 347.81 120.29 350.37 118.17L333.48 123.83C333.816 125.661 333.98 127.519 333.97 129.38C333.82 135.23 333.49 147.9 333.49 147.9C333.49 147.9 331.18 149.57 329.2 147.9C329.2 147.9 324.95 122.83 325.47 119.51C325.96 116.36 340.84 109.92 343.47 107.7C343.927 107.329 344.457 107.057 345.025 106.904C345.594 106.751 346.188 106.719 346.77 106.81L367 110.24Z" fill="#1C4ED7"/>
<path d="M326.54 114.38L337.89 107.83C337.988 107.771 338.1 107.74 338.215 107.74C338.33 107.74 338.442 107.771 338.54 107.83L358.44 119.32L346.77 126.06L326.54 114.38Z" fill="#F4F4F4"/>
<path d="M347.3 123.65L348.17 124.15C348.24 124.15 348.23 124.26 348.17 124.31L347.34 124.79C347.298 124.81 347.252 124.82 347.205 124.82C347.158 124.82 347.112 124.81 347.07 124.79L346.2 124.29C346.13 124.29 346.14 124.18 346.2 124.13L347.03 123.65C347.072 123.63 347.118 123.62 347.165 123.62C347.212 123.62 347.258 123.63 347.3 123.65Z" fill="#1E3A8B"/>
<path d="M346.08 123L346.94 123.49C347.01 123.49 347 123.61 346.94 123.65L346.12 124.13C346.077 124.152 346.029 124.163 345.98 124.163C345.931 124.163 345.883 124.152 345.84 124.13L344.98 123.63C344.91 123.63 344.92 123.52 344.98 123.47L345.8 123C345.843 122.975 345.891 122.962 345.94 122.962C345.989 122.962 346.037 122.975 346.08 123Z" fill="#1E3A8B"/>
<path d="M344.84 122.23L345.7 122.73C345.77 122.73 345.77 122.84 345.7 122.89L344.88 123.36C344.837 123.382 344.789 123.393 344.74 123.393C344.691 123.393 344.643 123.382 344.6 123.36L343.74 122.86C343.67 122.86 343.68 122.75 343.74 122.7L344.56 122.22C344.604 122.2 344.653 122.19 344.701 122.192C344.75 122.193 344.797 122.206 344.84 122.23Z" fill="#1E3A8B"/>
<path d="M343.63 121.53L344.49 122.03C344.56 122.03 344.56 122.14 344.49 122.19L343.67 122.67C343.626 122.69 343.578 122.7 343.53 122.7C343.482 122.7 343.434 122.69 343.39 122.67L342.53 122.17C342.46 122.17 342.47 122.06 342.53 122.01L343.35 121.53C343.394 121.51 343.442 121.5 343.49 121.5C343.538 121.5 343.586 121.51 343.63 121.53Z" fill="#1E3A8B"/>
<path d="M342.4 120.82L343.27 121.32C343.34 121.32 343.33 121.44 343.27 121.48L342.44 121.96C342.398 121.982 342.352 121.993 342.305 121.993C342.258 121.993 342.212 121.982 342.17 121.96L341.3 121.46C341.23 121.46 341.24 121.35 341.3 121.3L342.13 120.83C342.171 120.807 342.217 120.793 342.264 120.792C342.311 120.79 342.358 120.8 342.4 120.82Z" fill="#1E3A8B"/>
<path d="M341.18 120.12L342.05 120.62C342.12 120.62 342.11 120.73 342.05 120.78L341.22 121.25C341.178 121.272 341.132 121.283 341.085 121.283C341.038 121.283 340.992 121.272 340.95 121.25L340.08 120.75C340.01 120.75 340.02 120.64 340.08 120.6L340.91 120.12C340.952 120.098 340.998 120.087 341.045 120.087C341.092 120.087 341.138 120.098 341.18 120.12Z" fill="#1E3A8B"/>
<path d="M340 119.41L340.86 119.91C340.93 119.91 340.92 120.02 340.86 120.07L340.04 120.55C339.996 120.57 339.948 120.58 339.9 120.58C339.852 120.58 339.804 120.57 339.76 120.55L338.9 120.05C338.83 120.05 338.83 119.94 338.9 119.89L339.72 119.41C339.764 119.39 339.812 119.38 339.86 119.38C339.908 119.38 339.956 119.39 340 119.41Z" fill="#1E3A8B"/>
<path d="M338.73 118.7L339.6 119.2C339.67 119.2 339.66 119.32 339.6 119.36L338.77 119.84C338.728 119.862 338.682 119.873 338.635 119.873C338.588 119.873 338.542 119.862 338.5 119.84L337.63 119.34C337.56 119.34 337.57 119.23 337.63 119.18L338.46 118.71C338.501 118.687 338.547 118.673 338.594 118.672C338.641 118.67 338.688 118.68 338.73 118.7Z" fill="#1E3A8B"/>
<path d="M337.51 118L338.37 118.5C338.44 118.5 338.43 118.61 338.37 118.66L337.55 119.13C337.507 119.152 337.459 119.163 337.41 119.163C337.361 119.163 337.313 119.152 337.27 119.13L336.41 118.63C336.34 118.63 336.35 118.52 336.41 118.48L337.23 118C337.273 117.978 337.321 117.967 337.37 117.967C337.419 117.967 337.467 117.978 337.51 118Z" fill="#1E3A8B"/>
<path d="M336.28 117.29L337.15 117.79C337.22 117.79 337.21 117.9 337.15 117.95L336.32 118.43C336.278 118.45 336.232 118.46 336.185 118.46C336.138 118.46 336.092 118.45 336.05 118.43L335.18 117.93C335.11 117.93 335.12 117.82 335.18 117.77L336.01 117.29C336.052 117.268 336.098 117.257 336.145 117.257C336.192 117.257 336.238 117.268 336.28 117.29Z" fill="#1E3A8B"/>
<path d="M335.06 116.58L335.92 117.08C335.99 117.08 335.99 117.19 335.92 117.24L335.1 117.72C335.057 117.742 335.009 117.753 334.96 117.753C334.911 117.753 334.863 117.742 334.82 117.72L333.96 117.22C333.89 117.22 333.9 117.11 333.96 117.06L334.78 116.59C334.823 116.566 334.87 116.553 334.919 116.552C334.967 116.55 335.016 116.56 335.06 116.58Z" fill="#1E3A8B"/>
<path d="M333.84 115.88L334.7 116.38C334.77 116.38 334.76 116.49 334.7 116.54L333.87 117.01C333.828 117.032 333.782 117.043 333.735 117.043C333.688 117.043 333.642 117.032 333.6 117.01L332.73 116.51C332.66 116.51 332.67 116.4 332.73 116.35L333.56 115.88C333.603 115.858 333.651 115.847 333.7 115.847C333.749 115.847 333.797 115.858 333.84 115.88Z" fill="#1E3A8B"/>
<path d="M332.61 115.17L333.48 115.67C333.55 115.67 333.54 115.78 333.48 115.83L332.65 116.3C332.608 116.322 332.562 116.333 332.515 116.333C332.468 116.333 332.422 116.322 332.38 116.3L331.51 115.8C331.44 115.8 331.45 115.68 331.51 115.64L332.34 115.16C332.382 115.14 332.429 115.13 332.476 115.132C332.523 115.133 332.569 115.147 332.61 115.17Z" fill="#1E3A8B"/>
<path d="M330.8 114.12L332.25 114.96C332.32 114.96 332.31 115.07 332.25 115.12L331.43 115.6C331.386 115.62 331.338 115.63 331.29 115.63C331.242 115.63 331.194 115.62 331.15 115.6L329.7 114.76C329.63 114.76 329.63 114.65 329.7 114.6L330.52 114.12C330.564 114.1 330.612 114.09 330.66 114.09C330.708 114.09 330.756 114.1 330.8 114.12Z" fill="#1E3A8B"/>
<path d="M346.67 121.92L347.54 122.42C347.61 122.42 347.6 122.53 347.54 122.58L346.71 123.05C346.669 123.075 346.623 123.088 346.575 123.088C346.527 123.088 346.481 123.075 346.44 123.05L345.57 122.56C345.5 122.56 345.51 122.44 345.57 122.4L346.4 121.92C346.442 121.898 346.488 121.887 346.535 121.887C346.582 121.887 346.628 121.898 346.67 121.92Z" fill="#1E3A8B"/>
<path d="M345.45 121.21L346.31 121.71C346.38 121.71 346.37 121.82 346.31 121.87L345.49 122.35C345.446 122.37 345.398 122.38 345.35 122.38C345.302 122.38 345.254 122.37 345.21 122.35L344.35 121.85C344.28 121.85 344.28 121.74 344.35 121.69L345.17 121.21C345.213 121.188 345.261 121.177 345.31 121.177C345.359 121.177 345.407 121.188 345.45 121.21Z" fill="#1E3A8B"/>
<path d="M344.22 120.5L345.08 121C345.16 121 345.15 121.11 345.08 121.16L344.26 121.64C344.216 121.66 344.168 121.67 344.12 121.67C344.072 121.67 344.024 121.66 343.98 121.64L343.12 121.14C343.05 121.14 343.06 121.03 343.12 120.98L343.94 120.5C343.984 120.48 344.032 120.47 344.08 120.47C344.128 120.47 344.176 120.48 344.22 120.5Z" fill="#1E3A8B"/>
<path d="M343 119.79L343.87 120.29C343.94 120.29 343.93 120.41 343.87 120.45L343.04 120.93C342.998 120.952 342.952 120.963 342.905 120.963C342.858 120.963 342.812 120.952 342.77 120.93L341.9 120.43C341.83 120.43 341.84 120.32 341.9 120.27L342.73 119.8C342.771 119.777 342.817 119.763 342.864 119.762C342.911 119.76 342.958 119.77 343 119.79Z" fill="#1E3A8B"/>
<path d="M341.78 119.09L342.64 119.59C342.71 119.59 342.7 119.7 342.64 119.75L341.82 120.23C341.776 120.25 341.728 120.26 341.68 120.26C341.632 120.26 341.584 120.25 341.54 120.23L340.68 119.73C340.61 119.73 340.61 119.62 340.68 119.57L341.5 119.09C341.544 119.07 341.592 119.06 341.64 119.06C341.688 119.06 341.736 119.07 341.78 119.09Z" fill="#1E3A8B"/>
<path d="M340.55 118.38L341.42 118.88C341.49 118.88 341.48 119 341.42 119.04L340.59 119.52C340.548 119.542 340.502 119.553 340.455 119.553C340.408 119.553 340.362 119.542 340.32 119.52L339.45 119.02C339.38 119.02 339.39 118.91 339.45 118.86L340.28 118.39C340.321 118.367 340.367 118.353 340.414 118.352C340.461 118.35 340.508 118.36 340.55 118.38Z" fill="#1E3A8B"/>
<path d="M339.32 117.68L340.19 118.18C340.26 118.18 340.25 118.29 340.19 118.33L339.36 118.81C339.318 118.832 339.272 118.843 339.225 118.843C339.178 118.843 339.132 118.832 339.09 118.81L338.22 118.31C338.15 118.31 338.16 118.2 338.22 118.15L339.05 117.68C339.092 117.658 339.138 117.647 339.185 117.647C339.232 117.647 339.278 117.658 339.32 117.68Z" fill="#1E3A8B"/>
<path d="M338.1 117L338.96 117.5C339.03 117.5 339.02 117.61 338.96 117.66L338.14 118.13C338.097 118.152 338.049 118.163 338 118.163C337.951 118.163 337.903 118.152 337.86 118.13L337 117.63C336.93 117.63 336.94 117.52 337 117.48L337.82 117C337.863 116.978 337.911 116.967 337.96 116.967C338.009 116.967 338.057 116.978 338.1 117Z" fill="#1E3A8B"/>
<path d="M336.87 116.26L337.74 116.76C337.81 116.76 337.8 116.87 337.74 116.92L336.91 117.39C336.868 117.412 336.822 117.423 336.775 117.423C336.728 117.423 336.682 117.412 336.64 117.39L335.77 116.89C335.7 116.89 335.71 116.77 335.77 116.73L336.6 116.25C336.642 116.23 336.689 116.22 336.736 116.222C336.783 116.223 336.829 116.237 336.87 116.26Z" fill="#1E3A8B"/>
<path d="M335.65 115.55L336.51 116.05C336.58 116.05 336.57 116.16 336.51 116.21L335.68 116.69C335.638 116.71 335.592 116.72 335.545 116.72C335.498 116.72 335.452 116.71 335.41 116.69L334.54 116.19C334.47 116.19 334.48 116.08 334.54 116.03L335.37 115.55C335.414 115.53 335.462 115.52 335.51 115.52C335.558 115.52 335.606 115.53 335.65 115.55Z" fill="#1E3A8B"/>
<path d="M334.42 114.84L335.28 115.34C335.35 115.34 335.35 115.45 335.28 115.5L334.46 115.98C334.417 116.002 334.369 116.013 334.32 116.013C334.271 116.013 334.223 116.002 334.18 115.98L333.32 115.48C333.25 115.48 333.26 115.37 333.32 115.32L334.14 114.84C334.184 114.82 334.232 114.81 334.28 114.81C334.328 114.81 334.376 114.82 334.42 114.84Z" fill="#1E3A8B"/>
<path d="M333.19 114.14L334.06 114.63C334.13 114.63 334.12 114.75 334.06 114.79L333.23 115.27C333.188 115.292 333.142 115.303 333.095 115.303C333.048 115.303 333.002 115.292 332.96 115.27L332.09 114.77C332.02 114.77 332.03 114.66 332.09 114.61L332.92 114.14C332.961 114.115 333.007 114.102 333.055 114.102C333.103 114.102 333.149 114.115 333.19 114.14Z" fill="#1E3A8B"/>
<path d="M347.9 122.63L349.35 123.47C349.42 123.47 349.42 123.58 349.35 123.63L348.53 124.1C348.487 124.122 348.439 124.133 348.39 124.133C348.341 124.133 348.293 124.122 348.25 124.1L346.8 123.26C346.73 123.26 346.74 123.15 346.8 123.1L347.62 122.63C347.663 122.608 347.711 122.597 347.76 122.597C347.809 122.597 347.857 122.608 347.9 122.63Z" fill="#1E3A8B"/>
<path d="M330.86 114.08L331.72 114.58C331.761 114.6 331.805 114.61 331.85 114.61C331.895 114.61 331.939 114.6 331.98 114.58L332.85 114.07C332.865 114.064 332.878 114.054 332.888 114.041C332.897 114.027 332.902 114.011 332.902 113.995C332.902 113.979 332.897 113.963 332.888 113.949C332.878 113.936 332.865 113.926 332.85 113.92H332.78C332.72 113.92 332.72 113.83 332.78 113.79L333.7 113.26C333.78 113.26 333.78 113.15 333.7 113.11L333.15 112.79C333.109 112.771 333.065 112.76 333.02 112.76C332.975 112.76 332.931 112.771 332.89 112.79L332.03 113.29L331.85 113.39L331.72 113.47L331.59 113.54L330.85 113.97C330.837 113.986 330.831 114.007 330.833 114.027C330.835 114.047 330.844 114.066 330.86 114.08Z" fill="#1E3A8B"/>
<path d="M352 120.91L352.87 121.41C352.94 121.41 352.93 121.52 352.87 121.57L352.04 122.04C351.999 122.065 351.953 122.078 351.905 122.078C351.857 122.078 351.811 122.065 351.77 122.04L350.9 121.55C350.83 121.5 350.84 121.43 350.9 121.39L351.73 120.91C351.772 120.888 351.818 120.877 351.865 120.877C351.912 120.877 351.958 120.888 352 120.91Z" fill="#1E3A8B"/>
<path d="M350.82 120.2L351.69 120.7C351.76 120.7 351.75 120.82 351.69 120.86L350.86 121.34C350.818 121.362 350.772 121.373 350.725 121.373C350.678 121.373 350.632 121.362 350.59 121.34L349.72 120.84C349.65 120.84 349.66 120.73 349.72 120.68L350.55 120.21C350.591 120.187 350.637 120.173 350.684 120.172C350.731 120.17 350.778 120.18 350.82 120.2Z" fill="#1E3A8B"/>
<path d="M349.6 119.5L350.47 120C350.54 120 350.53 120.11 350.47 120.16L349.64 120.63C349.598 120.652 349.552 120.663 349.505 120.663C349.458 120.663 349.412 120.652 349.37 120.63L348.5 120.13C348.43 120.13 348.44 120.01 348.5 119.97L349.33 119.49C349.372 119.47 349.419 119.46 349.466 119.462C349.513 119.463 349.559 119.477 349.6 119.5Z" fill="#1E3A8B"/>
<path d="M339.21 113.5L340.07 114C340.14 114 340.13 114.11 340.07 114.16L339.25 114.63C339.207 114.652 339.159 114.663 339.11 114.663C339.061 114.663 339.013 114.652 338.97 114.63L338.11 114.13C338.03 114.13 338.04 114.02 338.11 113.97L338.93 113.5C338.973 113.478 339.021 113.467 339.07 113.467C339.119 113.467 339.167 113.478 339.21 113.5Z" fill="#1E3A8B"/>
<path d="M338 112.79L338.87 113.29C338.94 113.29 338.93 113.4 338.87 113.45L338.04 113.93C337.998 113.95 337.952 113.96 337.905 113.96C337.858 113.96 337.812 113.95 337.77 113.93L336.9 113.43C336.83 113.43 336.84 113.32 336.9 113.27L337.73 112.79C337.772 112.77 337.818 112.76 337.865 112.76C337.912 112.76 337.958 112.77 338 112.79Z" fill="#1E3A8B"/>
<path d="M336.76 112.09L337.63 112.59C337.7 112.59 337.69 112.7 337.63 112.75L336.8 113.22C336.758 113.242 336.712 113.253 336.665 113.253C336.618 113.253 336.572 113.242 336.53 113.22L335.66 112.72C335.59 112.72 335.6 112.61 335.66 112.57L336.49 112.09C336.532 112.068 336.578 112.057 336.625 112.057C336.672 112.057 336.718 112.068 336.76 112.09Z" fill="#1E3A8B"/>
<path d="M335.54 111.38L336.41 111.88C336.48 111.88 336.47 111.99 336.41 112.04L335.58 112.52C335.538 112.54 335.492 112.55 335.445 112.55C335.398 112.55 335.352 112.54 335.31 112.52L334.44 112.02C334.37 112.02 334.38 111.91 334.44 111.86L335.27 111.38C335.312 111.36 335.358 111.35 335.405 111.35C335.452 111.35 335.498 111.36 335.54 111.38Z" fill="#1E3A8B"/>
<path d="M348.07 118.61L349.25 119.29C349.32 119.29 349.31 119.41 349.25 119.45L348.42 119.93C348.378 119.952 348.332 119.963 348.285 119.963C348.238 119.963 348.192 119.952 348.15 119.93L347 119.26C346.93 119.26 346.93 119.15 347 119.1L347.82 118.62C347.899 118.585 347.988 118.581 348.07 118.61Z" fill="#1E3A8B"/>
<path d="M340.43 114.2L341.61 114.88C341.68 114.88 341.67 114.99 341.61 115.04L340.78 115.52C340.738 115.54 340.692 115.55 340.645 115.55C340.598 115.55 340.552 115.54 340.51 115.52L339.33 114.84C339.26 114.84 339.26 114.73 339.33 114.68L340.15 114.2C340.194 114.18 340.242 114.17 340.29 114.17C340.338 114.17 340.386 114.18 340.43 114.2Z" fill="#1E3A8B"/>
<path d="M342 115.09L347.75 118.41C347.82 118.41 347.81 118.52 347.75 118.57L346.93 119.04C346.887 119.062 346.839 119.073 346.79 119.073C346.741 119.073 346.693 119.062 346.65 119.04L340.9 115.72C340.83 115.72 340.84 115.61 340.9 115.57L341.73 115.09C341.772 115.068 341.818 115.057 341.865 115.057C341.912 115.057 341.958 115.068 342 115.09Z" fill="#1E3A8B"/>
<path d="M347.53 121L348.39 121.5C348.46 121.5 348.45 121.61 348.39 121.66L347.57 122.14C347.526 122.16 347.478 122.17 347.43 122.17C347.382 122.17 347.334 122.16 347.29 122.14L346.43 121.64C346.36 121.64 346.36 121.53 346.43 121.48L347.25 121C347.294 120.98 347.342 120.97 347.39 120.97C347.438 120.97 347.486 120.98 347.53 121Z" fill="#1E3A8B"/>
<path d="M346.3 120.33L347.17 120.83C347.24 120.83 347.23 120.95 347.17 120.99L346.34 121.47C346.298 121.492 346.252 121.503 346.205 121.503C346.158 121.503 346.112 121.492 346.07 121.47L345.2 120.97C345.13 120.97 345.14 120.86 345.2 120.81L346.03 120.34C346.071 120.317 346.117 120.303 346.164 120.302C346.211 120.3 346.258 120.31 346.3 120.33Z" fill="#1E3A8B"/>
<path d="M345.08 119.63L345.95 120.13C346.02 120.13 346.01 120.24 345.95 120.29L345.12 120.76C345.077 120.782 345.029 120.793 344.98 120.793C344.931 120.793 344.883 120.782 344.84 120.76L343.98 120.26C343.91 120.21 343.92 120.14 343.98 120.1L344.81 119.62C344.852 119.6 344.899 119.59 344.946 119.592C344.993 119.593 345.039 119.607 345.08 119.63Z" fill="#1E3A8B"/>
<path d="M343.86 118.92L344.72 119.42C344.79 119.42 344.78 119.53 344.72 119.58L343.9 120.06C343.856 120.08 343.808 120.09 343.76 120.09C343.712 120.09 343.664 120.08 343.62 120.06L342.76 119.56C342.69 119.56 342.7 119.45 342.76 119.4L343.58 118.92C343.624 118.9 343.672 118.89 343.72 118.89C343.768 118.89 343.816 118.9 343.86 118.92Z" fill="#1E3A8B"/>
<path d="M342.63 118.22L343.5 118.72C343.57 118.72 343.56 118.83 343.5 118.88L342.67 119.35C342.628 119.372 342.582 119.383 342.535 119.383C342.488 119.383 342.442 119.372 342.4 119.35L341.53 118.85C341.46 118.85 341.47 118.74 341.53 118.69L342.36 118.22C342.402 118.198 342.448 118.187 342.495 118.187C342.542 118.187 342.588 118.198 342.63 118.22Z" fill="#1E3A8B"/>
<path d="M341.41 117.51L342.28 118.01C342.35 118.01 342.34 118.12 342.28 118.17L341.45 118.65C341.408 118.67 341.362 118.68 341.315 118.68C341.268 118.68 341.222 118.67 341.18 118.65L340.31 118.15C340.24 118.15 340.25 118.04 340.31 117.99L341.14 117.51C341.182 117.49 341.228 117.48 341.275 117.48C341.322 117.48 341.368 117.49 341.41 117.51Z" fill="#1E3A8B"/>
<path d="M340.19 116.8L341.05 117.3C341.12 117.3 341.12 117.42 341.05 117.46L340.23 117.94C340.187 117.962 340.139 117.973 340.09 117.973C340.041 117.973 339.993 117.962 339.95 117.94L339.09 117.44C339.02 117.44 339.03 117.33 339.09 117.28L339.91 116.81C339.953 116.786 340 116.773 340.049 116.772C340.097 116.77 340.146 116.78 340.19 116.8Z" fill="#1E3A8B"/>
<path d="M339 116.1L339.86 116.6C339.93 116.6 339.92 116.71 339.86 116.76L339.04 117.23C338.997 117.255 338.949 117.268 338.9 117.268C338.851 117.268 338.803 117.255 338.76 117.23L337.9 116.74C337.83 116.74 337.83 116.62 337.9 116.58L338.72 116.1C338.763 116.078 338.811 116.067 338.86 116.067C338.909 116.067 338.957 116.078 339 116.1Z" fill="#1E3A8B"/>
<path d="M337.74 115.39L338.61 115.89C338.68 115.89 338.67 116 338.61 116.05L337.78 116.53C337.738 116.55 337.692 116.56 337.645 116.56C337.598 116.56 337.552 116.55 337.51 116.53L336.64 116.03C336.57 116.03 336.58 115.92 336.64 115.87L337.47 115.39C337.512 115.37 337.558 115.36 337.605 115.36C337.652 115.36 337.698 115.37 337.74 115.39Z" fill="#1E3A8B"/>
<path d="M336.52 114.69L337.38 115.19C337.46 115.19 337.45 115.3 337.38 115.34L336.55 115.82C336.507 115.842 336.459 115.853 336.41 115.853C336.361 115.853 336.313 115.842 336.27 115.82L335.41 115.32C335.34 115.32 335.35 115.21 335.41 115.16L336.23 114.69C336.275 114.666 336.324 114.654 336.375 114.654C336.426 114.654 336.475 114.666 336.52 114.69Z" fill="#1E3A8B"/>
<path d="M335.3 114L336.16 114.5C336.23 114.5 336.22 114.61 336.16 114.66L335.34 115.14C335.296 115.16 335.248 115.17 335.2 115.17C335.152 115.17 335.104 115.16 335.06 115.14L334.2 114.64C334.13 114.64 334.14 114.53 334.2 114.48L335 114C335.046 113.975 335.098 113.961 335.15 113.961C335.202 113.961 335.254 113.975 335.3 114Z" fill="#1E3A8B"/>
<path d="M334.07 113.27L334.94 113.77C335.01 113.77 335 113.89 334.94 113.93L334.11 114.41C334.068 114.432 334.022 114.443 333.975 114.443C333.928 114.443 333.882 114.432 333.84 114.41L332.97 113.91C332.9 113.91 332.91 113.8 332.97 113.75L333.8 113.28C333.841 113.257 333.887 113.243 333.934 113.242C333.981 113.24 334.028 113.25 334.07 113.27Z" fill="#1E3A8B"/>
<path d="M348.75 121.75L350.54 122.75C350.61 122.75 350.6 122.86 350.54 122.91L349.71 123.39C349.668 123.41 349.622 123.42 349.575 123.42C349.528 123.42 349.482 123.41 349.44 123.39L347.65 122.39C347.58 122.39 347.59 122.28 347.65 122.23L348.47 121.76C348.513 121.736 348.56 121.723 348.609 121.722C348.657 121.72 348.706 121.73 348.75 121.75Z" fill="#1E3A8B"/>
<path d="M349.32 120.71L350.18 121.21C350.26 121.21 350.25 121.32 350.18 121.36L349.36 121.84C349.317 121.862 349.269 121.873 349.22 121.873C349.171 121.873 349.123 121.862 349.08 121.84L348.22 121.34C348.15 121.34 348.16 121.23 348.22 121.18L349.04 120.71C349.083 120.688 349.131 120.677 349.18 120.677C349.229 120.677 349.277 120.688 349.32 120.71Z" fill="#1E3A8B"/>
<path d="M348.1 120L348.96 120.5C349.03 120.5 349.02 120.61 348.96 120.66L348.14 121.14C348.096 121.16 348.048 121.17 348 121.17C347.952 121.17 347.904 121.16 347.86 121.14L347 120.64C346.93 120.64 346.94 120.53 347 120.48L347.82 120C347.863 119.978 347.911 119.967 347.96 119.967C348.009 119.967 348.057 119.978 348.1 120Z" fill="#1E3A8B"/>
<path d="M346.87 119.29L347.74 119.79C347.81 119.79 347.8 119.91 347.74 119.95L346.91 120.43C346.868 120.452 346.822 120.463 346.775 120.463C346.728 120.463 346.682 120.452 346.64 120.43L345.77 119.93C345.7 119.93 345.71 119.82 345.77 119.77L346.6 119.3C346.641 119.277 346.687 119.263 346.734 119.262C346.781 119.26 346.828 119.27 346.87 119.29Z" fill="#1E3A8B"/>
<path d="M345.65 118.59L346.52 119.09C346.59 119.09 346.58 119.2 346.52 119.25L345.69 119.72C345.649 119.745 345.603 119.758 345.555 119.758C345.507 119.758 345.461 119.745 345.42 119.72L344.55 119.23C344.48 119.18 344.49 119.11 344.55 119.07L345.38 118.59C345.422 118.568 345.468 118.557 345.515 118.557C345.562 118.557 345.608 118.568 345.65 118.59Z" fill="#1E3A8B"/>
<path d="M344.43 117.88L345.29 118.38C345.36 118.38 345.36 118.49 345.29 118.54L344.47 119.02C344.426 119.04 344.378 119.05 344.33 119.05C344.282 119.05 344.234 119.04 344.19 119.02L343.33 118.52C343.26 118.52 343.27 118.41 343.33 118.36L344.15 117.88C344.194 117.86 344.242 117.85 344.29 117.85C344.338 117.85 344.386 117.86 344.43 117.88Z" fill="#1E3A8B"/>
<path d="M343.21 117.18L344.07 117.68C344.14 117.68 344.13 117.79 344.07 117.83L343.25 118.31C343.207 118.332 343.159 118.343 343.11 118.343C343.061 118.343 343.013 118.332 342.97 118.31L342.11 117.81C342.04 117.81 342.04 117.7 342.11 117.65L342.93 117.18C342.973 117.158 343.021 117.147 343.07 117.147C343.119 117.147 343.167 117.158 343.21 117.18Z" fill="#1E3A8B"/>
<path d="M342 116.47L342.87 116.97C342.94 116.97 342.93 117.08 342.87 117.13L342.04 117.61C341.998 117.63 341.952 117.64 341.905 117.64C341.858 117.64 341.812 117.63 341.77 117.61L340.9 117.11C340.83 117.11 340.84 117 340.9 116.95L341.73 116.47C341.772 116.45 341.818 116.44 341.865 116.44C341.912 116.44 341.958 116.45 342 116.47Z" fill="#1E3A8B"/>
<path d="M340.76 115.76L341.63 116.26C341.7 116.26 341.69 116.38 341.63 116.42L340.8 116.9C340.758 116.922 340.712 116.933 340.665 116.933C340.618 116.933 340.572 116.922 340.53 116.9L339.66 116.4C339.59 116.4 339.6 116.29 339.66 116.24L340.49 115.77C340.531 115.747 340.577 115.733 340.624 115.732C340.671 115.73 340.718 115.74 340.76 115.76Z" fill="#1E3A8B"/>
<path d="M339.54 115.06L340.4 115.56C340.47 115.56 340.46 115.67 340.4 115.72L339.58 116.19C339.537 116.212 339.489 116.223 339.44 116.223C339.391 116.223 339.343 116.212 339.3 116.19L338.44 115.69C338.37 115.69 338.38 115.57 338.44 115.53L339.26 115.05C339.304 115.03 339.353 115.02 339.401 115.022C339.45 115.023 339.497 115.036 339.54 115.06Z" fill="#1E3A8B"/>
<path d="M338.32 114.35L339.18 114.85C339.25 114.85 339.24 114.96 339.18 115.01L338.36 115.49C338.316 115.51 338.268 115.52 338.22 115.52C338.172 115.52 338.124 115.51 338.08 115.49L337.22 114.99C337.14 114.99 337.15 114.88 337.22 114.83L338.04 114.35C338.084 114.33 338.132 114.32 338.18 114.32C338.228 114.32 338.276 114.33 338.32 114.35Z" fill="#1E3A8B"/>
<path d="M337.09 113.65L337.96 114.15C338.03 114.15 338.02 114.26 337.96 114.31L337.13 114.78C337.088 114.802 337.042 114.813 336.995 114.813C336.948 114.813 336.902 114.802 336.86 114.78L335.99 114.28C335.92 114.28 335.93 114.17 335.99 114.13L336.82 113.65C336.862 113.628 336.908 113.617 336.955 113.617C337.002 113.617 337.048 113.628 337.09 113.65Z" fill="#1E3A8B"/>
<path d="M334.36 112.07L336.74 113.44C336.81 113.44 336.8 113.55 336.74 113.6L335.91 114.08C335.866 114.1 335.818 114.11 335.77 114.11C335.722 114.11 335.674 114.1 335.63 114.08L333.26 112.7C333.19 112.7 333.19 112.59 333.26 112.55L334.08 112.07C334.123 112.048 334.171 112.037 334.22 112.037C334.269 112.037 334.317 112.048 334.36 112.07Z" fill="#1E3A8B"/>
<path d="M350.54 121.41L351.72 122.09C351.79 122.09 351.78 122.21 351.72 122.25L350.9 122.73C350.857 122.752 350.809 122.763 350.76 122.763C350.711 122.763 350.663 122.752 350.62 122.73L349.44 122.05C349.37 122.05 349.38 121.94 349.44 121.89L350.27 121.41C350.312 121.39 350.358 121.38 350.405 121.38C350.452 121.38 350.498 121.39 350.54 121.41Z" fill="#1E3A8B"/>
<path d="M329.57 114.83L346.93 124.83C347 124.83 347 124.94 346.93 124.99L346.52 125.22C346.478 125.242 346.432 125.253 346.385 125.253C346.338 125.253 346.292 125.242 346.25 125.22L328.88 115.22C328.81 115.22 328.82 115.11 328.88 115.06L329.29 114.82C329.335 114.802 329.383 114.793 329.431 114.795C329.479 114.797 329.527 114.809 329.57 114.83Z" fill="#1E3A8B"/>
<path d="M349.89 115.28L349.77 115.34L346.77 117.08L341.44 114L341.33 113.93L344.44 112.14L349.89 115.28Z" fill="#BFBFBF"/>
<path d="M349.77 115.34L346.77 117.08L341.44 114L344.44 112.27L349.77 115.34Z" fill="#E5E5E5"/>
<path d="M358.44 119.32V119.59C358.442 119.782 358.392 119.971 358.298 120.138C358.203 120.304 358.066 120.443 357.9 120.54L347.32 126.64C347.155 126.738 346.967 126.789 346.775 126.789C346.583 126.789 346.395 126.738 346.23 126.64L327.09 115.64C326.916 115.54 326.772 115.393 326.675 115.217C326.578 115.041 326.531 114.841 326.54 114.64V114.37L346.77 126.05L358.44 119.32Z" fill="#E5E5E5"/>
<path d="M346.47 126.22C346.289 126.291 346.095 126.321 345.901 126.307C345.707 126.293 345.519 126.236 345.35 126.14L326.35 115.14C326.184 115.045 326.041 114.913 325.932 114.756C325.823 114.599 325.751 114.419 325.72 114.23L323.63 101.79C323.625 101.72 323.625 101.65 323.63 101.58C323.629 101.408 323.664 101.238 323.731 101.08C323.798 100.922 323.896 100.779 324.02 100.66L343.82 112.09C343.939 112.163 344.042 112.261 344.121 112.376C344.2 112.492 344.254 112.622 344.28 112.76L346.47 126.22Z" fill="#F4F4F4"/>
<path d="M346.77 126.06L346.64 126.14L346.47 126.22L344.21 112.76C344.184 112.622 344.13 112.492 344.051 112.376C343.972 112.261 343.869 112.163 343.75 112.09L324 100.66C324.073 100.577 324.161 100.509 324.26 100.46L344.1 111.91C344.221 111.982 344.326 112.079 344.407 112.195C344.488 112.31 344.543 112.441 344.57 112.58L346.77 126.06Z" fill="#E5E5E5"/>
<path d="M361.16 72.83C361.16 72.83 360.91 77.56 361.02 77.98C361.13 78.4 363.19 79.79 363.79 80.29C364.39 80.79 360.52 84.61 358.64 85.47C356.76 86.33 350.78 84.06 350.64 81.12C350.5 78.18 351.64 75.73 352.58 75.6C353.52 75.47 361.16 72.83 361.16 72.83Z" fill="#FFCEA9"/>
<path d="M361.68 78.8C361.68 78.8 358.25 83.92 353.46 84.4C351.95 82.91 351.81 77.61 353.9 75.92C353.9 75.92 351.98 74.36 350.66 74.67C349.23 75.5148 348.162 76.8571 347.66 78.44C346.433 81.9736 345.861 85.7011 345.97 89.44C346.05 94.44 345.97 107.15 345.97 107.15C346.251 108.65 346.846 110.073 347.717 111.326C348.587 112.579 349.713 113.633 351.02 114.42C354.482 116.384 358.564 116.949 362.43 116C364.86 115.43 365.76 114.08 366.6 112.31C366.38 108.8 364.99 101.55 365.6 97.12C366.21 92.69 367.12 89.39 367.36 85.82C367.6 82.25 366.89 82.31 365.09 81.03C364.009 80.2052 362.869 79.4599 361.68 78.8Z" fill="#F4F4F4"/>
<path d="M356.18 119.59C357.041 119.017 357.94 118.502 358.87 118.05C359.737 117.773 360.526 117.293 361.17 116.65C362.01 115.83 363.39 112.71 364.38 109.65C365.365 106.218 365.754 102.643 365.53 99.08C365.12 94.81 363.58 88.84 363.19 86.39C362.8 83.94 363.59 82.95 364.74 82.05C366.08 80.99 367.93 81.46 368.92 84.9C370.195 89.6593 370.933 94.5464 371.12 99.47C371.161 103.128 370.597 106.767 369.45 110.24C368.431 113.215 367.054 116.056 365.35 118.7C364.88 119.49 364.72 120.2 364 121.82C363.309 123.448 362.231 124.883 360.86 126C359.66 126.86 359.09 127 358.8 126.82C358.51 126.64 358.52 126.23 359.03 125.82C359.881 125.151 360.606 124.335 361.17 123.41C361.17 123.41 360.12 124.47 359.43 125.05C358.823 125.563 358.15 125.994 357.43 126.33C356.73 126.64 355.75 126.04 356.25 125.57C356.75 125.1 357.25 124.86 358.25 123.99C358.788 123.534 359.268 123.013 359.68 122.44C358.976 122.982 358.231 123.467 357.45 123.89C356.847 124.255 356.155 124.445 355.45 124.44C355.08 124.44 354.63 123.9 355.33 123.44C356.292 122.919 357.189 122.284 358 121.55C358.77 120.79 359.2 120.14 359 120.13C358.8 120.12 358.36 120.59 357.46 120.88C356.56 121.17 355.59 120.88 355.46 120.41C355.33 119.94 355.34 120 356.18 119.59Z" fill="#FFCEA9"/>
<path d="M350.44 65.77C351.01 62.1 353.66 59.32 357.44 59.53C358.965 59.6076 360.426 60.1624 361.618 61.1161C362.81 62.0698 363.672 63.3741 364.082 64.8446C364.493 66.315 364.43 67.8772 363.904 69.3102C363.378 70.7432 362.414 71.9745 361.15 72.83C361.016 73.3876 360.818 73.9278 360.56 74.44C359.23 76 355.18 77 354 76.8C353.31 76.7373 352.654 76.4681 352.119 76.0276C351.584 75.587 351.194 74.9954 351 74.33C349.74 71.45 350.13 67.59 350.44 65.77Z" fill="#FFCEA9"/>
<path d="M361.16 72.83L360.81 69.62C360.81 69.62 363.43 62.84 357.24 64.14C353.16 65 352.13 65.38 350.89 62.64C349.65 59.9 354 57.43 359.23 58.12C361.022 58.3053 362.68 59.1578 363.873 60.5083C365.066 61.8588 365.707 63.6084 365.67 65.41C365.54 67.43 365 71.51 361.16 72.83Z" fill="#1E3A8B"/>
<path d="M371.75 91.23C371.75 91.23 368.37 94.59 364.38 93.62C363.81 93.23 362.43 85.38 362.43 85.38C362.43 85.38 362.43 81.03 365.77 81.14C369.11 81.25 371.75 91.23 371.75 91.23Z" fill="#EDEDED"/>
<path d="M346.25 84.71C345.305 84.676 344.409 84.2783 343.75 83.6C343.89 81.84 346.14 75.16 350.66 74.67C349.43 75.5324 348.456 76.7104 347.84 78.08C347.137 80.2448 346.605 82.4617 346.25 84.71Z" fill="#EDEDED"/>
<path d="M549.4 369.15L465.88 320.93C460.63 317.93 456.38 309.78 456.38 302.79V171.38C456.38 164.38 460.63 161.18 465.88 164.2L549.4 212.43C554.64 215.43 558.89 223.58 558.89 230.57V362C558.89 369 554.64 372.18 549.4 369.15Z" fill="#1E3A8B"/>
<path d="M552.74 371.07L555.6 369.66L553.67 365.87L552.74 371.07Z" fill="#1E3A8B"/>
<path d="M457.94 164.57C458.781 164.07 459.664 163.645 460.58 163.3L462.7 167.49L457.94 164.57Z" fill="#1E3A8B"/>
<path d="M547.21 370.25L463.68 322C458.44 319 454.19 310.85 454.19 303.86V172.48C454.19 165.48 458.44 162.27 463.68 165.3L547.21 213.53C552.45 216.53 556.7 224.67 556.7 231.66V363.07C556.7 370.06 552.45 373.28 547.21 370.25Z" fill="#1E3A8B"/>
<path d="M478.87 192.7L463.68 183.93V178.45L478.87 187.22V192.7Z" fill="#A298E2"/>
<path d="M546.26 231.61L481.72 194.34V188.87L546.26 226.13V231.61Z" fill="#C33AFC"/>
<path d="M478.87 210.24L463.68 201.47V195.99L478.87 204.76V210.24Z" fill="#A298E2"/>
<path d="M524.43 236.54L481.72 211.88V206.4L524.43 231.06V236.54Z" fill="#F4CE2C"/>
<path d="M478.87 219L463.68 210.24V204.76L478.87 213.52V219Z" fill="#A298E2"/>
<path d="M534.87 251.34L481.72 220.65V215.17L534.87 245.86V251.34Z" fill="#FF8657"/>
<path d="M478.87 227.77L463.68 219V213.52L478.87 222.29V227.77Z" fill="#A298E2"/>
<path d="M518.74 250.79L481.72 229.42V223.94L518.74 245.31V250.79Z" fill="#A298E2"/>
<path d="M478.87 201.47L463.68 192.7V187.22L478.87 195.99V201.47Z" fill="#A298E2"/>
<path d="M513.99 221.75L481.72 203.11V197.63L513.99 216.26V221.75Z" fill="#4D3BFF"/>
<path d="M478.87 236.54L463.68 227.77V222.29L478.87 231.06V236.54Z" fill="#A298E2"/>
<path d="M500.7 249.14L481.72 238.18V232.7L500.7 243.66V249.14Z" fill="#C33AFC"/>
<path d="M478.87 254.07L463.68 245.31V239.83L478.87 248.6V254.07Z" fill="#A298E2"/>
<path d="M541.52 290.24L481.72 255.72V250.24L541.52 284.76V290.24Z" fill="#F4CE2C"/>
<path d="M478.87 262.84L463.68 254.07V248.59L478.87 257.36V262.84Z" fill="#A298E2"/>
<path d="M499.75 274.9L481.72 264.49V259.01L499.75 269.42V274.9Z" fill="#FF8657"/>
<path d="M478.87 271.61L463.68 262.84V257.36L478.87 266.13V271.61Z" fill="#A298E2"/>
<path d="M534.87 303.94L481.72 273.25V267.78L534.87 298.46V303.94Z" fill="#A298E2"/>
<path d="M478.87 245.31L463.68 236.54V231.06L478.87 239.83V245.31Z" fill="#A298E2"/>
<path d="M532.02 276L481.72 246.95V241.47L532.02 270.52V276Z" fill="#4D3BFF"/>
<path d="M478.87 280.38L463.68 271.61V266.13L478.87 274.9V280.38Z" fill="#A298E2"/>
<path d="M488.36 285.86L481.72 282.02V276.54L488.36 280.38V285.86Z" fill="#C33AFC"/>
<path d="M478.87 297.91L463.68 289.15V283.67L478.87 292.44V297.91Z" fill="#A298E2"/>
<path d="M494.06 306.68L481.72 299.56V294.08L494.06 301.2V306.68Z" fill="#F4CE2C"/>
<path d="M478.87 306.68L463.68 297.91V292.43L478.87 301.2V306.68Z" fill="#A298E2"/>
<path d="M513.99 326.96L481.72 308.33V302.85L513.99 321.48V326.96Z" fill="#FF8657"/>
<path d="M478.87 315.45L463.68 306.68V301.2L478.87 309.97V315.45Z" fill="#A298E2"/>
<path d="M532.97 346.69L481.72 317.09V311.61L532.97 341.21V346.69Z" fill="#A298E2"/>
<path d="M478.87 289.15L463.68 280.38V274.9L478.87 283.67V289.15Z" fill="#A298E2"/>
<path d="M546.26 328.06L481.72 290.79V285.31L546.26 322.57V328.06Z" fill="#4D3BFF"/>
<path d="M126.12 269.94L117 265.26L97.89 276.26C93.56 278.76 90.04 276.74 90.04 271.73V250.91C90.1877 248.186 90.9755 245.535 92.3394 243.172C93.7033 240.809 95.6049 238.801 97.89 237.31L211.7 171.58C216.03 169.08 219.55 171.11 219.55 176.11V197C219.402 199.724 218.614 202.375 217.251 204.738C215.887 207.101 213.985 209.109 211.7 210.6L135.18 254.74" fill="#B1B4C4"/>
<path d="M216.7 170.77L221 172.51L217.36 176.25L214.78 172.12L216.7 170.77Z" fill="#B1B4C4"/>
<path d="M126.12 269.94L130.65 271.76L130.66 267.86L126.65 267.06L126.12 269.94Z" fill="#B1B4C4"/>
<path d="M97.61 279C97.78 279.36 92.7 277.28 92.52 277C92.34 276.72 98.68 273 98.68 273L97.61 279Z" fill="#B1B4C4"/>
<path d="M139.71 256.55L216.23 212.38C218.513 210.888 220.414 208.879 221.777 206.516C223.141 204.154 223.93 201.504 224.08 198.78V177.93C224.08 172.93 220.56 170.93 216.23 173.39L102.38 239.12C100.096 240.612 98.1952 242.62 96.8315 244.983C95.4677 247.346 94.6793 249.996 94.53 252.72V273.57C94.53 278.57 98.05 280.57 102.38 278.1L121.49 267.1L130.65 271.79L139.71 256.55Z" fill="#E9EAF2"/>
<path d="M213.87 191.53L104.74 254.53V247.28L213.87 184.27V191.53Z" fill="#61A4F9"/>
<path d="M176.19 225.98L104.74 267.23V259.97L176.19 218.72V225.98Z" fill="#61A4F9"/>
</g>
<defs>
<filter id="filter0_d" x="0" y="0" width="647.318" height="594.429" filterUnits="userSpaceOnUse" color-interpolation-filters="sRGB">
<feFlood flood-opacity="0" result="BackgroundImageFix"/>
<feColorMatrix in="SourceAlpha" type="matrix" values="0 0 0 0 0 0 0 0 0 0 0 0 0 0 0 0 0 0 127 0"/>
<feOffset dy="4"/>
<feGaussianBlur stdDeviation="2"/>
<feColorMatrix type="matrix" values="0 0 0 0 0 0 0 0 0 0 0 0 0 0 0 0 0 0 0.25 0"/>
<feBlend mode="normal" in2="BackgroundImageFix" result="effect1_dropShadow"/>
<feBlend mode="normal" in="SourceGraphic" in2="effect1_dropShadow" result="shape"/>
</filter>
<filter id="filter1_d" x="86" y="58" width="476.89" height="508" filterUnits="userSpaceOnUse" color-interpolation-filters="sRGB">
<feFlood flood-opacity="0" result="BackgroundImageFix"/>
<feColorMatrix in="SourceAlpha" type="matrix" values="0 0 0 0 0 0 0 0 0 0 0 0 0 0 0 0 0 0 127 0"/>
<feOffset dy="4"/>
<feGaussianBlur stdDeviation="2"/>
<feColorMatrix type="matrix" values="0 0 0 0 0 0 0 0 0 0 0 0 0 0 0 0 0 0 0.25 0"/>
<feBlend mode="normal" in2="BackgroundImageFix" result="effect1_dropShadow"/>
<feBlend mode="normal" in="SourceGraphic" in2="effect1_dropShadow" result="shape"/>
</filter>
<linearGradient id="paint0_linear" x1="323.659" y1="0" x2="323.659" y2="586.429" gradientUnits="userSpaceOnUse">
<stop stop-color="#2DD4C0"/>
<stop offset="1" stop-color="white" stop-opacity="0"/>
</linearGradient>
<linearGradient id="paint1_linear" x1="411.247" y1="347.531" x2="494.35" y2="202.932" gradientUnits="userSpaceOnUse">
<stop offset="0.21" stop-color="white" stop-opacity="0"/>
<stop offset="1" stop-color="white" stop-opacity="0.2"/>
</linearGradient>
<linearGradient id="paint2_linear" x1="432.773" y1="297.828" x2="410.317" y2="336.902" gradientUnits="userSpaceOnUse">
<stop stop-color="#E9EAF2" stop-opacity="0.8"/>
<stop offset="1" stop-color="#E9EAF2" stop-opacity="0"/>
</linearGradient>
<clipPath id="clip0">
<rect width="468.89" height="500" fill="white" transform="translate(90 58)"/>
</clipPath>
</defs>
</svg>
