<svg  viewBox="0 0 512 512" fill="none" xmlns="http://www.w3.org/2000/svg">
<path d="M255.725 31.2122C260.754 31.2108 265.696 32.5342 270.05 35.049L439.909 133.118C444.266 135.633 447.882 139.25 450.396 143.606C452.91 147.962 454.235 152.903 454.235 157.932V354.07C454.235 359.099 452.91 364.039 450.396 368.396C447.882 372.75 444.266 376.368 439.909 378.882L270.05 476.951C265.694 479.465 260.754 480.79 255.724 480.79C250.694 480.79 245.753 479.465 241.397 476.951L71.5379 378.882C67.1822 376.368 63.5652 372.75 61.0506 368.396C58.5359 364.039 57.2121 359.099 57.2122 354.07V157.932C57.2121 152.903 58.5359 147.962 61.0506 143.606C63.5654 139.25 67.1822 135.633 71.5379 133.118L241.397 35.049C245.753 32.5344 250.695 31.211 255.725 31.2122ZM255.725 10C246.972 10.0034 238.374 12.3073 230.793 16.6808L60.9318 114.749C53.361 119.137 47.0739 125.433 42.6988 133.011C38.3238 140.589 36.0139 149.182 36 157.932V354.07C36.0143 362.821 38.3247 371.414 42.7001 378.991C47.0756 386.569 53.363 392.865 60.934 397.253L230.793 495.321C238.373 499.698 246.972 502 255.725 502C264.478 502 273.076 499.698 280.657 495.321L450.515 397.253C458.087 392.867 464.377 386.569 468.753 378.993C473.13 371.414 475.441 362.821 475.456 354.07V157.932C475.443 149.182 473.132 140.589 468.758 133.011C464.381 125.434 458.094 119.137 450.524 114.749L280.665 16.6808C273.085 12.3076 264.486 10.0037 255.734 10H255.725Z" fill="url(#paint0_linear)"/>
<path opacity="0.8" d="M249.662 144.898L142.149 207.294V207.412L225.285 255.635L249.662 241.462V144.898Z" fill="url(#paint1_linear)"/>
<path opacity="0.8" d="M142.149 304.035L249.662 366.371V269.808L225.285 255.635L142.149 303.858V304.035Z" fill="url(#paint2_linear)"/>
<path opacity="0.8" d="M367.717 208.825L260.206 146.428V242.992L284.649 257.165L367.717 208.942V208.825Z" fill="url(#paint3_linear)"/>
<path opacity="0.8" d="M260.206 367.902L367.717 305.505V305.387L284.649 257.164L260.206 271.337V367.902Z" fill="url(#paint4_linear)"/>
<path opacity="0.8" d="M142.149 207.412V303.859L225.285 255.635L142.149 207.412Z" fill="url(#paint5_linear)"/>
<path opacity="0.8" d="M367.72 305.388V208.942L284.65 257.165L367.72 305.388Z" fill="url(#paint6_linear)"/>
<defs>
<linearGradient id="paint0_linear" x1="36" y1="256" x2="475.456" y2="256" gradientUnits="userSpaceOnUse">
<stop stop-color="#89F7FE"/>
<stop offset="1" stop-color="#66A6FF"/>
</linearGradient>
<linearGradient id="paint1_linear" x1="142.149" y1="200.267" x2="249.662" y2="200.267" gradientUnits="userSpaceOnUse">
<stop stop-color="#89F7FE"/>
<stop offset="1" stop-color="#66A6FF"/>
</linearGradient>
<linearGradient id="paint2_linear" x1="142.149" y1="311.003" x2="249.662" y2="311.003" gradientUnits="userSpaceOnUse">
<stop stop-color="#89F7FE"/>
<stop offset="1" stop-color="#66A6FF"/>
</linearGradient>
<linearGradient id="paint3_linear" x1="260.206" y1="201.797" x2="367.717" y2="201.797" gradientUnits="userSpaceOnUse">
<stop stop-color="#89F7FE"/>
<stop offset="1" stop-color="#66A6FF"/>
</linearGradient>
<linearGradient id="paint4_linear" x1="260.206" y1="312.533" x2="367.717" y2="312.533" gradientUnits="userSpaceOnUse">
<stop stop-color="#89F7FE"/>
<stop offset="1" stop-color="#66A6FF"/>
</linearGradient>
<linearGradient id="paint5_linear" x1="142.149" y1="255.635" x2="225.285" y2="255.635" gradientUnits="userSpaceOnUse">
<stop stop-color="#16D9E3"/>
<stop offset="0.47" stop-color="#30C7EC"/>
<stop offset="1" stop-color="#46AEF7"/>
</linearGradient>
<linearGradient id="paint6_linear" x1="284.65" y1="257.165" x2="367.72" y2="257.165" gradientUnits="userSpaceOnUse">
<stop stop-color="#16D9E3"/>
<stop offset="0.47" stop-color="#30C7EC"/>
<stop offset="1" stop-color="#46AEF7"/>
</linearGradient>
</defs>
</svg>
